<?xml version="1.0" standalone="no"?>
<!DOCTYPE svg PUBLIC "-//W3C//DTD SVG 20010904//EN"
 "http://www.w3.org/TR/2001/REC-SVG-20010904/DTD/svg10.dtd">
<svg version="1.0" xmlns="http://www.w3.org/2000/svg"
 width="1968.000000pt" height="579.000000pt" viewBox="0 0 1968.000000 579.000000"
 preserveAspectRatio="xMidYMid meet">
<g transform="translate(0.000000,579.000000) scale(0.100000,-0.100000)"
fill="#000000" stroke="none">
<path d="M12900 3270 l0 -1700 415 0 415 0 0 1700 0 1700 -415 0 -415 0 0
-1700z m740 1310 l0 -320 -320 0 -320 0 0 320 0 320 320 0 320 0 0 -320z m-2
-545 c2 -33 1 -579 -3 -1212 l-7 -1153 -314 0 -314 0 0 1215 0 1215 318 -2
317 -3 3 -60z"/>
<path d="M15830 4575 l0 -394 -687 -3 -688 -3 -57 -27 c-126 -59 -295 -199
-358 -298 -61 -95 -60 -76 -60 -875 0 -689 1 -735 20 -824 30 -144 91 -250
205 -359 95 -92 158 -131 297 -185 l83 -32 1033 -3 1032 -2 0 1700 0 1700
-410 0 -410 0 0 -395z m727 -437 c-4 -413 -7 -1140 -7 -1615 l0 -864 -982 4
c-1083 3 -1017 -1 -1153 66 -129 64 -263 222 -308 365 -22 71 -22 74 -22 781
0 794 -3 753 73 900 52 99 168 213 264 258 135 64 110 62 833 62 l660 0 3 398
2 397 322 0 321 0 -6 -752z"/>
<path d="M14725 3448 c-3 -7 -4 -267 -3 -578 l3 -565 591 -3 591 -2 6 571 c3
315 4 576 1 581 -3 4 -271 8 -595 8 -462 0 -591 -3 -594 -12z m1105 -568 l0
-490 -505 0 -505 0 0 474 c0 261 3 481 6 490 5 14 59 16 505 16 l499 0 0 -490z"/>
<path d="M7078 4224 c-49 -26 -58 -59 -58 -213 0 -77 3 -147 7 -157 3 -9 178
-221 388 -469 210 -249 385 -457 389 -463 4 -7 -154 -208 -374 -478 -210 -257
-390 -481 -401 -498 -16 -26 -19 -51 -19 -167 0 -125 2 -139 23 -170 l23 -34
407 -3 406 -2 63 74 c35 41 151 182 258 314 107 133 197 241 200 241 3 1 89
-101 190 -226 102 -125 218 -267 258 -315 l72 -88 410 0 410 0 20 33 c17 28
20 50 20 180 l0 147 -203 253 c-112 138 -289 357 -395 486 -106 129 -192 238
-192 242 0 4 96 119 213 254 116 136 229 268 250 294 22 25 71 80 110 122 116
122 196 224 212 269 10 28 15 81 15 159 0 129 -12 168 -63 205 -27 20 -42 21
-390 24 -331 2 -365 1 -394 -15 -18 -10 -143 -149 -280 -312 -136 -162 -252
-296 -258 -297 -5 -2 -122 132 -260 298 -137 165 -262 306 -277 314 -41 21
-741 20 -780 -2z m766 -166 c24 -29 157 -187 296 -350 138 -164 254 -298 258
-298 4 0 140 157 302 350 l295 350 328 0 327 0 0 -106 0 -105 -292 -342 c-161
-188 -350 -409 -420 -490 -74 -86 -125 -154 -121 -160 4 -6 118 -147 253 -312
135 -165 321 -393 413 -508 l167 -207 0 -84 c0 -47 -3 -91 -6 -100 -5 -14 -44
-16 -329 -16 l-322 0 -80 98 c-43 53 -177 217 -296 365 -120 147 -219 267
-221 267 -3 0 -54 -61 -430 -520 -88 -107 -165 -198 -170 -202 -6 -4 -156 -8
-333 -8 l-323 0 0 103 0 103 78 94 c443 536 763 934 759 943 -3 7 -34 46 -70
87 -35 41 -223 262 -416 489 l-351 415 0 98 0 98 329 0 330 0 45 -52z"/>
<path d="M10505 4214 c-234 -57 -443 -254 -525 -494 -22 -62 -23 -86 -32 -585
-5 -286 -7 -623 -4 -750 5 -260 12 -298 79 -435 34 -71 57 -101 141 -185 84
-84 116 -108 190 -145 l89 -45 1098 -3 1099 -2 -2 412 -3 412 -34 20 c-34 19
-56 20 -898 24 l-863 5 0 450 0 450 854 -5 c918 -6 898 -7 938 45 16 20 18 57
18 399 l0 378 -29 32 -29 33 -1014 2 c-857 1 -1022 -1 -1073 -13z m1268 -114
l767 0 0 -315 0 -315 -912 -2 -913 -3 0 -575 0 -575 913 -3 912 -2 0 -315 c0
-269 -2 -316 -15 -321 -8 -3 -457 -2 -997 3 l-983 10 -62 22 c-175 64 -329
225 -386 406 -22 69 -22 76 -22 765 0 635 2 701 18 759 54 196 204 362 387
429 94 34 164 41 355 37 94 -3 515 -5 938 -5z"/>
<path d="M0 4175 l0 -45 209 0 c155 0 211 -3 218 -12 6 -7 49 -107 96 -223 84
-207 173 -423 338 -823 46 -111 87 -201 93 -199 5 2 47 91 93 197 46 107 140
321 208 475 68 154 152 345 188 425 l64 145 310 3 310 2 36 -82 c20 -46 93
-207 162 -358 69 -151 183 -400 252 -553 70 -152 131 -276 137 -274 5 2 49
106 97 233 48 126 133 348 189 494 56 146 125 327 153 403 l52 137 336 0 337
0 -115 -302 c-63 -167 -141 -373 -173 -458 -32 -85 -178 -472 -325 -860 -147
-388 -276 -729 -287 -758 l-20 -52 -240 2 -241 3 -196 435 c-108 239 -255 564
-326 723 -72 158 -133 287 -136 287 -4 0 -148 -324 -320 -720 l-314 -719 -241
-1 -240 0 -118 303 c-65 166 -197 502 -293 747 -96 245 -200 512 -231 593
l-57 149 -3 -217 -2 -218 66 -181 c36 -99 72 -188 79 -196 8 -8 93 -221 189
-472 133 -344 189 -479 229 -545 l53 -88 321 -3 320 -2 275 632 c271 625 299
679 314 621 3 -10 123 -295 268 -633 l262 -615 334 -3 335 -2 379 1002 c209
552 435 1148 502 1326 l122 322 -454 -2 -455 -3 -202 -505 c-168 -419 -205
-505 -221 -505 -15 0 -64 97 -252 505 l-233 505 -407 0 -407 0 -216 -495
c-178 -409 -219 -495 -235 -495 -17 0 -53 82 -222 495 l-202 495 -271 3 -271
2 0 -45z"/>
<path d="M4110 3800 l0 -420 933 -2 c924 -3 932 -3 932 -23 0 -20 -8 -20 -932
-23 l-933 -2 0 -555 c0 -634 8 -729 71 -825 5 -8 17 -28 27 -44 54 -90 180
-236 234 -270 15 -10 55 -27 90 -39 63 -21 67 -21 1186 -25 l1123 -3 -3 1038
-3 1038 -24 70 c-39 115 -97 217 -170 299 -35 39 -144 110 -225 146 -138 63
-79 60 -1243 60 l-1063 0 0 -420z m2145 296 c221 -62 402 -245 445 -450 7 -34
9 -371 8 -1005 l-3 -954 -965 2 c-1060 2 -1030 1 -1159 64 -85 41 -213 167
-259 254 -18 34 -41 96 -52 139 -19 72 -20 112 -20 576 l0 498 915 0 915 0 0
130 0 130 -915 0 -915 0 0 321 0 321 973 -5 c865 -4 979 -7 1032 -21z"/>
<path d="M4892 2663 c-9 -7 -12 -49 -10 -174 l3 -164 595 0 595 0 3 168 2 167
-207 0 c-115 0 -379 3 -588 6 -220 3 -385 2 -393 -3z m1078 -178 l0 -65 -500
0 -500 0 0 65 0 65 500 0 500 0 0 -65z"/>
<path d="M17593 4200 c-40 -4 -94 -13 -120 -18 -27 -6 -66 -14 -88 -17 -62 -9
-126 -36 -170 -69 -151 -115 -242 -218 -274 -312 -50 -150 -53 -197 -48 -960
3 -465 8 -725 15 -756 31 -131 194 -332 338 -417 147 -86 70 -81 1266 -81
l1058 0 0 410 0 410 -910 0 -910 0 0 40 0 40 910 0 910 0 0 598 c0 747 4 721
-128 884 -71 87 -155 162 -209 185 -21 9 -76 27 -123 42 l-85 25 -680 2 c-374
1 -713 -2 -752 -6z m1458 -137 c72 -25 164 -81 228 -138 55 -50 133 -168 162
-246 23 -64 24 -66 27 -595 l3 -531 -913 1 -913 1 -3 -127 -3 -128 263 0 c145
0 557 -3 916 -7 l652 -6 0 -314 0 -314 -982 3 c-920 3 -987 5 -1038 22 -200
66 -356 219 -423 416 l-22 65 4 700 c3 644 5 706 22 773 54 212 238 390 451
437 51 11 200 13 783 12 715 -2 720 -2 786 -24z"/>
<path d="M17644 3447 c-2 -7 -3 -85 -2 -172 l3 -160 595 0 595 0 3 166 2 166
-301 6 c-514 12 -889 9 -895 -6z m1086 -152 l0 -75 -485 0 -485 0 0 75 0 75
485 0 485 0 0 -75z"/>
</g>
</svg>
