<svg xmlns="http://www.w3.org/2000/svg" viewBox="0 0 400 288.16">
  <g fill-rule="evenodd">
    <path d="M51.663 97.201c-8.563.972-13.348 4.142-14.66 9.711-.434 1.84-.433 45.873.001 47.714 1.613 6.845 9.037 10.305 21.103 9.836 9.105-.354 14.501-2.979 16.536-8.045.826-2.057.89-3.022.83-12.532l-.057-8.944-.625-1.269c-1.253-2.544-5.298-4.785-8.885-4.923-.314-.012.055-.136.821-.276 4.745-.867 7.228-2.969 8.138-6.891.557-2.401.297-13.776-.36-15.748-2.221-6.672-10.975-9.98-22.842-8.633m164.885-.074c-9.281 1.076-14.993 4.718-16.179 10.315-.222 1.047-.268 5.813-.271 28.221l-.003 26.962h15.407V137.328H224.251V162.625h15.417l-.054-27.437c-.06-30.341.029-28.167-1.239-30.385-3.091-5.41-12.581-8.747-21.827-7.676M81.077 126.153c.056 24.898.089 27.349.384 28.435 1.885 6.946 8.067 9.941 20.013 9.696 10.641-.217 15.831-2.982 17.643-9.398l.419-1.486.058-27.247.058-27.247h-15.23l-.001 27.152c0 17.232-.069 27.398-.188 27.826-.771 2.775-6.053 3.183-7.371.569l-.428-.848V98.906H81.015l.062 27.247m44.648 4.613v31.859h15.407v-29.862h16.928V124.204h-16.928v-16.548H158.631v-8.75h-32.906v31.86m37.28 0v31.859h15.407v-29.862h16.928V124.204h-16.928v-16.548H195.911v-8.75h-32.906v31.86m-104.088-24.98c.637.327 1.042.713 1.378 1.309l.475.846v6.562c0 8.075-.164 8.758-2.398 9.983-.968.53-1.172.566-3.641.637l-2.615.075v-8.616c0-9.54.023-9.731 1.289-10.56 1.454-.953 3.91-1.058 5.512-.236m162.785-.323c1.02.303 2.013 1.175 2.347 2.062.134.354.202 4.079.202 10.985v10.449h-8.767l.056-10.509c.057-10.5.057-10.51.487-11.315.89-1.665 3.303-2.376 5.675-1.672M57.49 132.844c1.88.671 2.889 2.169 3.206 4.763.401 3.277.14 15.661-.351 16.649-1.414 2.848-6.917 2.676-8.026-.25-.135-.356-.203-4.045-.203-10.985v-10.448l2.33.008c1.444.005 2.602.105 3.044.263m263.385 37.397c-7.336.472-11.653 2.535-13.573 6.486-1.144 2.353-1.297 3.644-1.226 10.364.102 9.708.032 9.599 12.616 19.797 9.721 7.878 9.696 7.838 9.57 15.645-.062 3.764-.083 3.954-.55 4.862-1.531 2.98-7.087 2.548-7.967-.619-.12-.433-.2-3.187-.2-6.947l-.001-6.229H305.235l.091 6.514c.122 8.684.55 10.32 3.448 13.174 5.92 5.832 25.115 5.883 31.079.084 2.6-2.529 2.8-3.404 2.8-12.259 0-11.924.095-11.755-12.135-21.557-10.842-8.689-10.09-7.673-10.179-13.752-.094-6.34.521-7.413 4.245-7.413 3.895 0 4.47 1.116 4.47 8.684v4.841h14.075v-5.143c0-7.504-.551-9.544-3.308-12.262-2.668-2.629-6.196-3.871-12.151-4.278-2.96-.202-3.554-.201-6.795.008m28.15 33.563v31.859H364.242v-30.432h8.369v30.432h15.406v-63.718h-15.406v24.346h-8.369v-24.346H349.025v31.859" fill="#74bceb"/>
    <path d="M155.435 18.823c-3.766 1.018-6.7 3.794-8.15 7.711-.335.904-.357 2.263-.447 27.484l-.096 26.534-.417 1.093c-2.912 7.629-13.039 8.13-16.499.816-.786-1.661-.858-2.398-.866-8.852-.011-8.585-.415-10.144-3.408-13.146-6.074-6.093-16.273-3.585-18.974 4.667-.498 1.521-.504 1.611-.616 8.764l-.113 7.228-.617 1.303c-2.676 5.65-9.391 7.12-13.921 3.047-2.454-2.206-2.892-3.427-3.061-8.534-.293-8.899-4.743-13.794-12.147-13.364-6.809.395-10.851 5.406-10.86 13.466-.005 5.181-1.299 7.847-4.669 9.627-2.11 1.115-1.701 1.081-14.83 1.203-12.089.113-12.181.116-13.357.55-3.721 1.373-6.573 4.657-7.375 8.489-.419 2.004-.419 81.116 0 83.12.814 3.893 3.657 7.108 7.513 8.494l1.236.445 69.758.049c60.916.043 69.757.084 69.757.326 0 .807.876 2.486 1.841 3.528 3.912 4.225 10.953 2.749 12.623-2.648l.328-1.061 2.067-.243c5.751-.673 9.026-2.315 15.707-7.872 9.524-7.923 18.805-8.854 25.188-2.527 8.182 8.11 2.644 22.043-9.01 22.666l-1.945.105-.052-3.742-.052-3.742-7.007 4.842c-3.854 2.663-7.06 4.894-7.125 4.959-.315.315 18.691-.005 19.839-.334 17.419-4.989 14.543-30.547-3.519-31.269-6.769-.271-11.263 1.535-18.38 7.382-5.969 4.904-8.939 6.398-13.93 7.005-1.701.207-1.927.167-1.927-.336 0-.664-1.151-2.719-1.996-3.563-3.941-3.942-11.07-2.105-12.494 3.219l-.235.879h-68.964c-60.518 0-69.099-.035-70.055-.284-3.039-.792-5.289-2.853-6.455-5.913l-.429-1.126-.055-39.753c-.065-46.691-.245-43.391 2.525-46.295 2.673-2.803 3.072-2.872 16.638-2.876 14.066-.004 14.809-.142 17.985-3.321 2.575-2.577 3.129-4.161 3.33-9.515.197-5.216.643-6.589 2.858-8.784 4.256-4.22 11.096-3.216 13.961 2.048.846 1.554 1.051 2.66 1.055 5.69.007 5.338.859 7.861 3.567 10.56 6.374 6.355 17.343 3.007 19.15-5.844.235-1.153.299-2.777.301-7.608.003-7.816.324-9.098 2.87-11.456 4.858-4.497 12.159-2.672 14.468 3.617.388 1.056.42 1.571.533 8.354.104 6.287.164 7.351.462 8.178 3.926 10.889 19.162 10.481 21.993-.588.365-1.428.376-2.198.376-26.937 0-28.25-.055-26.976 1.248-29.185 3.938-6.68 13.12-5.823 16.126 1.505l.41.997.095 26.534.095 26.533.519 1.422c3.717 10.184 17.906 10.277 21.667.142l.439-1.183.104-16.929c.104-16.927.104-16.928.528-18.054 3.199-8.485 14.808-8.082 17.068.592.24.923.284 3.505.287 16.884.003 17.678-.023 17.273 1.336 20.032 3.396 6.89 12.833 8.389 18.247 2.9 2.503-2.538 3.157-4.483 3.297-9.8.08-3.022.161-3.798.495-4.74 2.79-7.873 12.979-8.564 16.518-1.12l.706 1.485.125 3.995c.177 5.615.903 7.687 3.614 10.307 6.476 6.257 17.289 2.926 19.079-5.877.234-1.152.298-2.784.298-7.621 0-7.771.331-9.09 2.873-11.443 4.951-4.584 12.572-2.51 14.634 3.982.168.528.281 3.007.368 8.084.156 9.122.657 10.776 4.102 13.561 3.128 2.528 3.592 2.598 17.3 2.605 9.11.005 11.414.057 12.243.277 2.995.798 5.117 2.717 6.32 5.716l.458 1.141.095 28.626.095 28.625.445 1.237c1.034 2.876 3.068 5.216 5.632 6.48 2.79 1.375 1.397 1.311 28.833 1.315 26.932.003 25.696-.046 27.843 1.102 2.106 1.126 3.99 3.649 4.475 5.992.144.697.19 13.059.155 41.506l-.051 40.514-.447 1.108c-.962 2.386-3.153 4.505-5.544 5.364-1.028.368-1.759.376-40.752.425l-39.705.05V253.543H279.22v2.092l-14.693.008c-11.777.007-14.835.059-15.407.263-3.883 1.386-4.187 8.248-.455 10.244l.788.422 14.884.054 14.883.054V268.569h31.764V262.292h39.618c43.91 0 40.5.1 43.303-1.269 2.674-1.306 5.022-4.233 5.793-7.223.454-1.757.462-82.304.008-84.044-.915-3.515-3.55-6.44-7.071-7.851l-1.289-.517-25.773-.096-25.773-.096-1.126-.428c-3.15-1.196-5.419-3.794-6.002-6.872-.127-.667-.195-10.621-.195-28.547 0-26.887-.008-27.557-.379-29.008-1.024-4.003-4.2-7.144-8.267-8.178-.948-.241-2.956-.289-12.268-.292-13.611-.004-14.074-.072-16.604-2.438-2.735-2.556-2.863-3.069-3.002-12.014-.107-6.851-.141-7.394-.521-8.421-3.248-8.782-13.927-10.73-19.841-3.619-2.135 2.566-2.454 4.03-2.462 11.272-.007 6.991-.131 8.175-1.054 10.053-3.361 6.833-12.69 6.637-16.029-.337l-.679-1.418-.137-4.003c-.194-5.691-.768-7.393-3.381-10.016-6.211-6.235-16.508-3.561-19.132 4.967-.231.75-.364 2.18-.469 5.041-.188 5.106-.542 6.142-2.855 8.349-5.158 4.92-13.671 1.913-14.832-5.238-.123-.76-.197-7.035-.197-16.909-.002-13.534-.042-15.855-.295-16.826-2.55-9.789-15.603-11.606-20.873-2.905-1.644 2.714-1.545 1.494-1.657 20.5-.108 18.269-.035 17.04-1.142 19.208-3.201 6.275-12.527 6.01-15.692-.446-1.071-2.183-1.047-1.507-1.047-28.839 0-24.714-.01-25.472-.376-26.902-1.536-6.005-7.884-9.721-13.851-8.107m141.664 78.296c-3.048.364-4.065.534-5.671.949-5.135 1.324-8.394 4.114-9.721 8.321l-.49 1.552v22.539c0 21.079.023 22.635.344 24.006 1.602 6.826 7.805 9.962 19.628 9.923 11.29-.037 17.163-3.049 19.053-9.773.528-1.879.539-45.801.012-47.741-1.412-5.192-5.323-8.119-12.598-9.427-1.649-.296-8.97-.538-10.557-.349m-51.355 33.647v31.859l12.982-.001c7.139 0 14.714-.056 16.833-.125l3.851-.125v-8.689h-18.259V98.906h-15.407v31.86m57.77-24.987c.661.328 1.038.683 1.384 1.306l.475.856v45.649l-.52.885c-1.558 2.65-6.868 2.336-7.931-.469-.336-.887-.279-45.804.059-46.594.867-2.027 4.106-2.837 6.533-1.633m-57.389 98.025v31.859h15.406v-29.862h16.928V197.242h-16.928v-16.358H279.03v-8.939h-32.905v31.859m37.85 0v31.859H299.192v-63.718H283.975v31.859m-101.447-20.539c3.231 1.328 4.049 5.592 1.552 8.09-3.077 3.077-8.334.849-8.325-3.528.007-3.52 3.532-5.895 6.773-4.562m125.984 77.886v4.945H281.883v-9.891H308.512v4.946m-50.595-.095v2.948h-8.018l-.556-.556c-.799-.799-.845-3.636-.074-4.553.614-.729.627-.731 4.987-.762l3.661-.026v2.949m21.303 0v2.948h-18.83v-5.897h18.83v2.949" fill="#171217"/>
  </g>
</svg>
