<svg xmlns="http://www.w3.org/2000/svg" viewBox="0 0 400 182.987">
	<title>Wulfe Logo</title>
  <g fill-rule="evenodd">
    <path d="M194.211 13.516c-31.5 2.27-58.934 23.929-68.376 53.984-.475 1.512-1.15 3.65-1.5 4.75-1.284 4.039-1.374 4.714-1.412 10.583-.022 3.379-.112 5.755-.255 6.667-.83 5.309.095 14.405 2.26 22.222 10.718 38.703 48.835 62.778 88.554 55.931 20.053-3.457 38.058-14.838 50.007-31.609l1.216-1.707 6.439-.043 6.439-.044.047-2.388c.053-2.725-.244-3.23-.8-1.362-.647 2.176-.636 2.172-6.429 2.291-2.512.051-4.568.032-4.568-.043s.552-1.08 1.226-2.234c2.278-3.901 3.609-6.588 5.123-10.345.678-1.684.854-1.891 1.146-1.346.483.902.695.412.662-1.531-.029-1.751.014-2.03.651-4.209 1.572-5.382 2.668-11.418 2.934-16.166.057-1.009.145-2.265.197-2.792l.094-.958h3.788c7.03 0 9.366-.681 11.495-3.349 3.091-3.873 2.965-8.798-.312-12.211-1.69-1.76-2.722-2.321-7.262-3.947-6.145-2.2-7.382-3.358-7.204-6.743.332-6.318 8.413-8.202 13.491-3.146 1.093 1.089 1.816 1.363 1.59.602-.347-1.165-1.473-3.809-1.689-3.967-.298-.218-2.308-.633-4.421-.912-8.523-1.125-14.102 7.305-9.458 14.291 1.095 1.646 2.669 2.661 6.033 3.889 6.421 2.345 7.596 3.036 8.576 5.046 2.716 5.57-3.566 10.476-11.13 8.693-3.183-.75-3.46-1.112-3.694-4.83-.305-4.84-1.271-11.678-1.93-13.666-.122-.367-.532-1.792-.913-3.167-9.714-35.107-43.803-58.887-80.615-56.234m13.122 1.557c31.062 3.078 57.348 24.728 65.926 54.298.327 1.125.778 2.621 1.004 3.325.225.703.478 1.791.562 2.416.084.626.34 2.263.569 3.638.689 4.142.711 4.546.246 4.611l-.39.056v9.666l.542.053.541.052v1.216c0 1.314-.455 6.222-.598 6.454-.173.279-6.568.174-6.568-.108 0-.138-.066-.25-.146-.25-.08 0-.38-.047-.667-.104-.452-.091-.521-.058-.521.25 0 .35-.037.354-3.74.354-4.199 0-3.99.072-3.685-1.263.124-.543.28-1.474.346-2.07.066-.596.258-1.436.427-1.866.306-.781.27-2.094-.11-3.926-.167-.802.328-.715 1.187.208.459.493.838.75 1.105.75 1.567 0 1.468 2.913-.137 4.017-.949.653-.967 1.456-.021.972.9-.461 1.556-1.711 1.669-3.18.122-1.584-.195-1.475 4.303-1.475 3.8 0 3.99-.015 3.99-.315 0-.228-.162-.345-.587-.425-1.34-.251-1.805-.939-3.495-5.167-1.026-2.566-1.112-2.871-.94-3.345.35-.968-.042-1.792-1.015-2.133-.359-.127-.863-1.282-.651-1.494.084-.085.552-.203 1.039-.262.731-.09.93-.188 1.138-.558.363-.647.166-.709-.954-.301-1.595.582-1.618.565-2.653-1.898-.972-2.313-.978-2.618-.045-2.293.354.124.63.131.835.021.448-.24.902-.201 1.47.125.74.424.793.203.364-1.5-6.954-27.545-29.666-48.275-57.719-52.681-1.639-.257-1.736-.218-1.285.524l.319.524.715-.324c1.61-.731 2.326.426.805 1.3-.398.228-.502.411-.542.95-.082 1.107-2.293.931-3.133-.249-.373-.523-1.045-.799-2.117-.87-.83-.055-.948.23-.175.423 1.019.255 1.117.913.241 1.623-.326.263-.313.277.428.464 1.282.323 1.984 1.629 2.02 3.763l.02 1.152.762.265c.419.145 1.112.554 1.541.909l.78.645.667-.604c.783-.707.745-.701 1.873-.258.482.189 1.368.41 1.967.491.6.08 1.444.298 1.875.483l.785.336v-.633c0-.647 1.164-1.688 1.888-1.688.143 0 .305-.075.362-.167.057-.092.029-.167-.061-.167-.26 0-1.189-.841-1.189-1.077 0-.402 1.309-.47 1.935-.101.469.277.744.316 1.644.232.911-.085 1.096-.058 1.186.175.189.493-.233.729-1.52.85-1.326.124-1.372.156-.985.668.157.208.212.501.148.792-.136.619.121.594 1.251-.126.978-.623 1.517-.705 2.174-.329.646.369 1.069.297 1.474-.25.677-.916 1.855-.51 2.121.731.162.757.237.822.589.504.455-.413.403-.976-.112-1.21-.605-.276-.474-.76.224-.828.556-.053 1.017.21 2.073 1.184.978.903.125 2.371-1.312 2.257-.849-.067-.9.019-.239.409.632.374 1.151.36 1.766-.047.973-.645 1.995-.138 2.416 1.197.312.989.466 1.166.84.966.88-.471 2.16.305 2.16 1.309 0 .658-.811 1.361-1.571 1.361-.347 0-.808.19-1.266.522-.464.336-.791.47-.916.375l-1.069-.798c-.868-.647-.873-.657-.767-1.367.107-.711.103-.718-.61-1.08a7.287 7.287 0 01-1.245-.824c-1.121-.978-3.011-1.403-3.9-.878-.473.279-.499.273-1.881-.437-1.394-.717-1.409-.721-3.128-.708-1.54.011-1.767-.026-2.103-.342l-.377-.354v.362c0 .352-.062.363-2.292.403-3.834.069-4.279.041-5.145-.325a7.873 7.873 0 00-1.609-.457c-.833-.119-1.898-.881-3.363-2.406-.362-.377-.743-.686-.846-.686-.299 0-.858-.707-.987-1.249-.213-.897-.924-1.314-.925-.543-.002 1.281-.797 1.651-2.559 1.192-.765-.199-1.386-.239-2.453-.157-1.87.145-2.252-.143-1.293-.972.331-.286.685-.684.786-.883.421-.83 2.41-.906 3.334-.128.584.491 2.086.609 1.91.151-.178-.463-1.086-.778-2.626-.91-3.205-.276-4.271-1.141-1.973-1.601 2.127-.426.377-2.188-2.344-2.361-1.56-.099-2.36.134-3.6 1.046-1.44 1.061-1.368 1.535.152.998 1.678-.592 3.604.139 2.776 1.055-.235.259-.271.488-.182 1.159.122.917-.104 1.206-1.137 1.46-1.024.252-1.713-.968-1.046-1.85.329-.436.315-.574-.059-.574-.173 0-.437.188-.587.417-.499.761-1.846.479-1.962-.41-.036-.277-.188-.441-.469-.507-.769-.18-.324-1.531.732-2.223.723-.474.543-.668-.518-.558-1.547.159-3.431 1.279-2.604 1.547 1.295.419 1.769.86 1.402 1.302-.207.25-.072.432.321.432.154 0 .365.189.471.42.105.231.381.493.614.581.91.346.629 1.141-.426 1.201-3.032.172-4.489-.205-3.076-.796.32-.134.583-.346.583-.471s.112-.321.25-.435c.453-.376.263-.589-.792-.887-1.679-.476-1.791-.545-1.791-1.109v-.504h-1.403c-1.678 0-1.931-.078-1.931-.601 0-.496.086-.5-2.082.109-2.588.726-2.63.812-.383.775 1.795-.03 1.981-.004 2.31.324l.359.356-.368.368c-.273.273-.483.341-.81.264-1.646-.391-2.563-.316-4.645.383-2.348.788-3.09.731-2.272-.173.418-.461.035-.387-1.692.328-2.024.838-1.996 1.061.167 1.307.916.104 2.041.278 2.5.388.483.116 1.634.176 2.742.144 1.881-.054 1.913-.049 2.115.351.217.432.051.982-.327 1.082-.108.028-.797.187-1.53.351-1.588.357-1.693.427-1.254.824.52.471.414 1.01-.371 1.878-1.443 1.596-1.615 1.64-3.496.896-1.965-.777-2.091-.781-3.377-.111-1.254.654-1.608.715-1.925.333-.938-1.13 3.666-2.858 5.327-1.999.702.363 1.188.236 1.57-.412.463-.783.273-1.043-.658-.903-.866.129-1.121-.067-.954-.734.097-.388.093-.39-.415-.127-.737.381-1.178.337-1.358-.135-.129-.34-.312-.422-1.204-.541-.817-.11-1.052-.204-1.054-.421-.004-.529-.217-.489-1.9.356-4.366 2.19-12.515 7.677-12.515 8.426 0 .474.502.653.767.274.273-.389.884-.476 1.191-.168.144.144.241-.005.392-.603.244-.97 1.062-1.84 1.956-2.081.353-.095.771-.316.93-.492.159-.175.527-.414.818-.53.291-.117.811-.461 1.155-.766.61-.539 1.334-.721 1.541-.386.164.264.367.199.953-.303 2.068-1.775 3.146-.209 1.235 1.795-.688.721-.955 1.139-1.031 1.615-.186 1.167-.899 1.704-1.819 1.372-.47-.17-.597-.149-1.036.176-.665.491-1.739.638-2.037.279-.329-.397-.468-.332-.683.32-.699 2.12-3.832 3.255-3.832 1.389 0-.635-.219-.963-.423-.633-.066.107-.489.16-1.036.127-.961-.056-1.465.283-.712.48.667.174.969 2.228.409 2.787-.317.318-.285.317-.967.032-.542-.227-.576-.214-1.87.675-1.15.79-1.397.895-1.946.829-.754-.091-1.189.242-1.024.786.186.612.594.94 1.168.94.3 0 .724.068.941.15.601.229 2.203-.743 3.052-1.851 1.128-1.474 1.829-1.6 2.422-.438.183.359.518.737.743.839.664.303.533.481-2.15 2.935l-2.559 2.341-.649-.146c-.357-.081-.773-.3-.925-.488-.367-.453-.413-.436-.529.2-.054.298-.148.712-.209.92-.102.353-.079.367.338.209 1.663-.633 1.559-.249-.551 2.022-1.858 2.001-1.817 1.93-2.359 4.099-.201.808-.602.937-1.165.373-.412-.411-.321-1.281.276-2.644.706-1.613.164-1.265-.79.508-.411.764-.964 1.526-1.284 1.77l-.562.429.723.184c2.258.577 2.527 1.042 1.096 1.891-.916.544-1.211 1.021-.791 1.281.434.268.055.829-1.594 2.362-1.936 1.801-2.267 2.003-2.651 1.619-.455-.456-.013-1.962.636-2.164 1.052-.328.551-1.034-.663-.934-.767.064-.895.033-.895-.215 0-.212-.093-.266-.345-.2-.79.206-1.14-.668-.721-1.802.255-.69-.544.231-1.092 1.26l-.528.99-1.782.003c-2.259.003-3.183.607-1.391.91 1.185.2 1.276.436 1.276 3.313v2.524l-.498.006c-.433.006-.534.102-.782.75-.407 1.062-.385 1.161.266 1.161 1.127 0 1.097-.079 1.097 2.934 0 2.312-.038 2.733-.248 2.733-.137 0-.383.281-.547.625-.281.589-.337.622-.982.574-.627-.047-.698-.01-.857.445-.113.326-.305.514-.561.551-.646.091-.66 1.919-.021 2.72.641.804 1.104.776 1.448-.085.336-.839.336-.83-.065-.83-.814 0-1.325-1.318-.738-1.905a.87.87 0 011.32.113l.268.375.339-.459c.187-.253.409-.417.492-.365.219.135.188 2.667-.042 3.435-.149.495-.149.696 0 .844.14.141.194 1.698.194 5.586v5.391l-.413.414c-.99.989-2.664 1.321-3.022.598a2.681 2.681 0 00-.379-.575c-.593-.593-.034-4.156.922-5.865.912-1.634.719-3.589-.377-3.798-.755-.145-1.112.465-.564.961.467.422.426 1.435-.108 2.666-.238.55-.623 1.563-.855 2.25-.233.688-.514 1.513-.625 1.834-.449 1.295-.726 3.393-.572 4.333.083.504.233 1.554.334 2.333.353 2.719.398 2.917.659 2.917.175 0 .266-.211.301-.695.063-.863.425-1.234.82-.84.249.25.246.324-.039.955-.29.644-.292.711-.029 1.156.374.633.242.674-2.162.674-2.212 0-2.511.276-.936.862 1.298.484 1.92 1.534 3.044 5.138.386 1.237.963 2.793 1.282 3.457.431.897.553 1.33.474 1.688-.172.784 2.417 8.032 3.164 8.857.135.149.395.708.579 1.241.184.534.41 1.063.504 1.175.132.159 2.936 7.649 3.868 10.332.398 1.143.989 1.178 1.419.083.345-.879.354-.875 1.489.647 1.186 1.59 4.083 5.02 4.239 5.02.479 0 .287-1.601-.21-1.759-.878-.278-1.211-1.686-.553-2.343.607-.607 1.231-.494 1.476.269.178.555.228.585 1.038.633.678.039.943.144 1.298.515 1.25 1.304 1.21 3.096-.054 2.466-.835-.417-.792.009.091.905.996 1.012.906 1.403-.321 1.388-1.017-.014-.919.143 1.398 2.249 1.934 1.758 2.039 1.816 2.561 1.422.177-.135.607-.245.954-.245.495 0 .692-.093.915-.433.27-.413.331-.428 1.321-.322.865.093 1.15.054 1.713-.233 1.553-.792 3.962-.124 3.284.911-.539.824-1.842 1.304-2.723 1.004-1.323-.451-1.427-.401-1.299.623.172 1.38-.248 1.679-1.495 1.067-3.11-1.525 2.253 2.52 7.379 5.567 2.151 1.278 5.084 2.791 7.073 3.648l1.28.551.525-.441c.989-.833 2.341-.328 2.848 1.063l.271.745 1.815.634c8.564 2.991 21.841 4.404 29.78 3.17.966-.151.643-.46-.577-.554-1.139-.087-1.033-.032-3.699-1.925-.92-.653-1.167-.685-2.257-.298-2.361.838-4.09-2.057-3.282-5.496.147-.624.267-1.239.267-1.367 0-.401-1.148-.588-2.92-.476-1.424.091-1.703.066-1.895-.165-.897-1.081 3.917-2.969 5.44-2.134.464.255.49.017.041-.389-.612-.554-.438-1.082.642-1.957.412-.333.461-1.011.181-2.525-.287-1.551.647-2.466 2.56-2.508.651-.014 1.035-.097 1.081-.234.673-2.018 3.631-2.846 4.882-1.367.776.919 1.508.595 2.009-.889.478-1.417 1.038-2.16 2.028-2.69.477-.255 1.282-.893 1.789-1.417 1.261-1.305 1.207-1.298 9.897-1.322 8.32-.024 7.598.081 7.598-1.101 0-.69.059-.907.247-.907.136 0 .431-.363.657-.807.225-.444.591-.927.814-1.073.465-.305 1.206-1.497 1.376-2.214.117-.493.68-1.239.935-1.239.076 0 .138 1.264.138 2.809 0 3.281-.164 3.691-1.475 3.691-.404 0-.69.088-.744.23-.196.509.272.603 3.007.603 2.266 0 2.738.042 2.818.25.116.304.584.327.867.043.114-.113.635-.245 1.159-.291 1.052-.094 1.444-.686.534-.807-.66-.089-.769-.314-.36-.749l.368-.392-.636-.25c-.721-.283-.948-.802-1.114-2.554-.182-1.905.258-2.531 2.624-3.728 1.542-.781 2.149.505.875 1.854-.498.527-.74.958-.539.958.028 0 .392-.319.808-.709.738-.69 1.006-1.238 1.214-2.481.056-.333.28-1.046.498-1.583.692-1.703.714-2.396.113-3.447-.284-.497-.517-1.136-.517-1.42 0-.345-.111-.574-.334-.694-.644-.345-.379-.549.542-.417.481.068 1.248.119 1.704.113 1.042-.013 1.081.056 1.088 1.888.007 2.207.386 2.7 1.735 2.254.622-.205 1.154-1.172 1.362-2.474.182-1.133-.006-1.349-.644-.745-1.162 1.1-1.922.956-1.337-.251.357-.738 1.862-.81 2.32-.112.152.233.36.396.462.362.19-.063.235-.258.681-2.943.386-2.323 1.333-3.794 2.547-3.957 1.141-.153.914.488-.551 1.559l-.492.359.62.266c.859.368 1.214.333 1.531-.152.308-.469.846-.534 1.339-.161.178.135.459.245.625.245.261 0 .302.15.302 1.102v1.102l-.459-.09c-1.184-.234-1.12-.273-1.187.719-.18 2.68-.06 2.948.871 1.932.301-.329.599-.599.662-.599.307 0 .094 2.167-.302 3.063-.302.682-.408 1.197-.39 1.895.02.786-.07 1.136-.502 1.941-.29.54-.527 1.114-.527 1.277 0 .57-.989 1.219-1.354.889-.838-.758-.245-4.135.843-4.808.258-.159.218-.683-.07-.922-.354-.294-.992-.084-1.715.564-.729.655-1.878 1.268-2.375 1.268-.569 0-1.008.322-1.259.925-.463 1.108-.355 1.345.908 1.98 2.666 1.343 2.733 3.104.275 7.245-1.742 2.934-2.689 3.64-5.12 3.814-.623.044-1.133.141-1.133.214 0 .333 1.028.855 1.468.744 1.104-.277 1.47-.282 1.687-.02.343.413.474.332 1.119-.694.331-.527.849-1.221 1.151-1.541.301-.321.884-1.351 1.294-2.289 1.514-3.46 3.017-5.275 4.031-4.868.588.235 1.19.166 1.497-.173.876-.968.879 1.949.002 2.998-.321.384-.631.884-.688 1.111-.056.226-.286.481-.511.567-.259.098-.387.26-.351.446.051.265.396.295 3.929.336 2.13.024 3.872.09 3.872.145 0 .158-1.438 2.15-2.81 3.893-11.009 13.986-27.036 23.933-44.273 27.478-51.263 10.542-97.553-31.614-91.664-83.478.141-1.237.321-2.925.4-3.75.163-1.692 1.801-8.147 2.919-11.5 8.644-25.921 30.432-45.283 57.178-50.812 3.474-.718 6.613-1.113 12-1.508 1.632-.12 8.373.074 10.75.31M194.25 20.11c-4.698.379-5.66.608-4.042.963.267.058.459.211.459.366 0 .2.093.237.375.149 1.791-.564 2.19-.626 4.125-.639 1.877-.013 2.2.03 3.27.435 1.432.542 1.459.544 1.213.085-.573-1.071 1.233-1.4 2.074-.378.548.664 1.227.755 2.443.326.389-.138.995-.25 1.346-.25.773 0 2.144-.635 1.445-.669-.023-.001-1.166-.112-2.541-.247-2.211-.216-8.207-.299-10.167-.141m6.845 3.711c-.257.269-.684.578-.948.687-.783.324-.554.492.671.492 1.068 0 1.145-.024 1.064-.333-.048-.183.034-.518.182-.744.512-.781-.243-.86-.969-.102m15.302.932c.357.186.624.211 1.038.097.71-.196 1.232-.061 1.232.318 0 .341-.321.499-1.014.499-.404 0-.486.068-.486.404 0 .976-.717 1.094-2.375.39-.669-.283-.792-.406-.792-.789 0-.968 1.328-1.477 2.397-.919m-31.368.356c.471.427.367.706-.404 1.076-1.929.926-1.808.799-1.692 1.768.101.842.089.877-.373 1.057-.262.103-.814.359-1.227.57-.412.21-.993.434-1.289.498-.494.105-.833.355-.683.505.033.034.472-.053.975-.192 1.602-.442 2.404.335 1.513 1.467-1.115 1.418-4.981 2.765-5.227 1.822-.052-.199-.26-.342-.545-.375-1.103-.131-.901-1.237.336-1.839.768-.373.952-.687.504-.86-.947-.363 1.757-2.106 3.266-2.106.279 0 1.071-.969.917-1.122-.029-.03-.267.027-.529.127-1.641.624-1.665-.532-.028-1.381 2.457-1.275 3.85-1.59 4.486-1.015m17.304.046c.274.159.776.237 1.167.181.333-.048-.468-.3-1-.314-.314-.009-.355.024-.167.133m9.15.164c.497.315.052.651-1.014.763-1.52.161-2.596-.341-1.594-.743.487-.196 2.308-.21 2.608-.02m8.596 1.574c.423.309.227.704-.414.832-.999.2-2.207-.356-1.811-.834.246-.295 1.82-.294 2.225.002m-5.693.682c1.735.619 2.267 2.127.938 2.659-1.001.401-1.563.339-2.228-.246-.456-.399-.825-.546-1.686-.668-1.221-.172-1.743-.387-1.743-.717 0-.921 3.115-1.6 4.719-1.028m-21.09 1.684c.505.354.467.641-.18 1.347-.867.946-2.783.716-2.783-.334 0-.976 2.027-1.669 2.963-1.013m6.471.684c.636.417.403 1.123-.43 1.306-.275.061-.543.179-.595.264-.109.176-1.905.201-3.208.045-1.103-.133-1.177-.592-.116-.725.524-.065.676-.16.717-.446.123-.862 2.543-1.157 3.632-.444m-15.491 1.648c.131.341.101.359-.818.496-.671.1-.791.076-.791-.157 0-.514 1.426-.815 1.609-.339m17.557-.087c0 .288-.781.545-1.279.42-.452-.113-.457-.127-.147-.354.371-.272 1.426-.321 1.426-.066m35.448 1.84c.258.097.694.393.969.658s.8.605 1.167.756c.883.363 1.416.876 1.416 1.363 0 .451.368 1.224.945 1.982.611.804.194 1.397-.984 1.397-.654 0-.961-.248-.961-.777 0-.463-.548-.785-1.143-.671-1.114.213-2.078-.849-1.107-1.219.54-.205.526-.297-.125-.861-.503-.436-.521-.485-.25-.697.444-.347.356-.569-.375-.942-.835-.426-.91-1.064-.136-1.153.063-.007.326.066.584.164m-64.952.406c0 .092-.393.167-.873.167s-.978.068-1.107.15c-.769.496-1.729 1.461-2.045 2.057-.233.44-2.25 1.709-2.717 1.709-.539 0 .413-1.241 1.3-1.694l.688-.351-.641-.554c-.927-.802-.701-1.148.983-1.508.942-.202 4.413-.182 4.412.024m2.338.083c0 .092-.146.167-.324.167-.178 0-.37-.075-.426-.167-.059-.094.081-.166.323-.166.235 0 .427.075.427.166m53.178 1.256c1.173.607 2.026 2.411 1.14 2.411-.698 0-3.652-1.815-3.652-2.245 0-.563 1.546-.665 2.512-.166m15.182 1.342c.701.362 1.895 1.486 2.334 2.198l.364.588-.375.303c-.37.3-.371.31-.071.821.289.492.29.528.013.731-.343.252-.366.481-.094.917.29.463-.108.903-.685.758-1.166-.292-2.267-1.69-1.767-2.242.181-.201.215-.343.098-.415-.247-.153-.223-.753.031-.774a7.99 7.99 0 01.708.003c.473.02.422-.054-.951-1.373-1.099-1.055-1.404-1.44-1.258-1.586.273-.273 1.053-.24 1.653.071m-78.394 1.083c.065.559-.237.794-1.191.925-.948.13-1.028-.134-.281-.933.63-.675 1.394-.671 1.472.008m33.007.549c.618.392-.961 1.437-2.172 1.437h-1.13l-.421.667c-.232.366-.444.666-.472.666-.028 0-.44-.115-.915-.256l-.863-.257-.028-.826a98.698 98.698 0 00-.042-1.119c-.021-.456 5.376-.734 6.043-.312m-37.229.264c.437.482.234.741-.767.981-.807.194-1.035.363-2.348 1.745l-1.454 1.53-.415-.5c-.479-.576-.521-.92-.191-1.55.906-1.729 4.298-3.175 5.175-2.206m40.222.256c3.418.915 5.576 2.049 5.208 2.736-.232.434-.027.466-2.127-.333-1.869-.71-2.112-.731-3.596-.308-1.116.319-1.354.136-1.419-1.093-.084-1.613-.174-1.567 1.934-1.002m-12.883.179c1.449.754 1.448 1.186-.005 1.83a9.723 9.723 0 00-1.626.973c-.889.678-1.498.76-2.018.273-.193-.181-.595-.55-.893-.821-1.336-1.213-.512-2.163 2.042-2.354.825-.062 1.612-.124 1.75-.137.137-.013.475.093.75.236m48.964.863c1.437.783 3.214 3.043 3.088 3.929-.061.428-.753.573-1.31.275-.3-.161-.396-.136-.601.157-.488.697-2.036.13-3.103-1.137-1.194-1.42.259-1.799 1.903-.497 1.193.945.653.205-.858-1.176-2.245-2.052-1.724-2.969.881-1.551m-57.451.347c.007.245.07.715.139 1.046.126.599.124.602-.528.706-.36.058-1.01.262-1.445.454-.941.417-1.078.338-.72-.413.329-.69.192-.886-.298-.427-.486.457-1.399.591-1.828.268-.477-.359-.298-.471 2.25-1.408 2.422-.89 2.411-.889 2.43-.226m67.703 2.137c.407.258.765.985.609 1.238-.267.432-1.568-.045-1.921-.704-.44-.821.348-1.142 1.312-.534m-75.061.986c.091.362.191.405.942.405 1.389 0 1.909.408 1.57 1.231-.117.285-.31.954-.427 1.485-.248 1.125-.191 1.074-1.439 1.303-1.27.233-2.943.954-4.392 1.891-1.704 1.102-1.928 1.027-1.742-.582.242-2.083 3.032-4.601 4.247-3.833.251.159.241.215-.245 1.38-.142.341.428.405 1.153.129.54-.205.539-.502-.006-1.364l-.433-.687-1.329.103c-1.681.129-1.655-.022.195-1.165 1.468-.907 1.742-.949 1.906-.296m37.091-.18c.268.138.836.252 1.262.252.883 0 1.859.4 1.973.807.043.152.125.538.184.859.135.745.425 1.5.575 1.5.162 0 1.843 2.275 1.843 2.495 0 .119-.573.165-1.708.137-1.682-.041-1.728-.032-2.987.595-.703.35-1.412.611-1.574.579-.418-.08-.7-1.625-.489-2.681.211-1.059-.327-2.635-1.164-3.408-.55-.507-.75-1.151-.453-1.456.188-.194 1.982.033 2.538.321m33.465.766c.974.608.464 1.501-.602 1.056-1.04-.435-1.421-.942-1.013-1.35.209-.209 1.057-.055 1.615.294m4.195 1.02c2.132 1.031 5.942 6.461 5.179 7.38-.395.477-.75.248-2.606-1.683l-1.861-1.935-1.011.118c-1.443.167-2.431-.987-2.437-2.847-.006-1.456 1.042-1.851 2.736-1.033m-8.407.56c.944.448.755 1.239-.296 1.239-.377 0-2.011-1.604-1.869-1.835.093-.15 1.286.178 2.165.596M144 46.144c0 .573-.702 1.338-1.347 1.467-.486.097-1.31 1.104-3.22 3.935-1.141 1.69-1.311 2.083-.808 1.862.16-.071.664-.173 1.119-.226.704-.084.885-.183 1.209-.665.491-.732.483-.771-.161-.769-1.427.005.69-3.072 2.448-3.557 1.624-.449 1.716.435.164 1.575-1.491 1.094-1.731 1.615-.304.658 1.574-1.056 2.206-1.245 2.587-.773.256.315.34.335.637.149.592-.369.412-.703-.7-1.3-1.35-.724-.991-2.167.539-2.167.552 0 1.004-.063 1.004-.14 0-.292-.893-.526-2.008-.526H144v.477m109.735 1.194c1.294 1.192 2.604 4.303 2.078 4.936-.896 1.08-3.494-1.526-2.76-2.768.352-.595.112-.83-.734-.716-.609.081-.665.052-.879-.459-.652-1.55.943-2.24 2.295-.993m-14.788.964c1.023 1.497.8 2.64-.425 2.175-.926-.352-2.254-2.41-1.799-2.788.905-.751 1.38-.62 2.224.613m-4.78-.035c1.262 1.18 1.966 2.777 1.423 3.227-.508.422-1.232.044-1.781-.929-.281-.498-.841-1.175-1.244-1.505-.808-.662-.861-.808-.456-1.255.483-.534 1.155-.384 2.058.462m9.824-.188c.283.146.627.567.852 1.041.928 1.96 2.344 3.335 3.899 3.787 1.014.295 1.174.45 1.323 1.281.222 1.231-.003 1.423-1.675 1.428l-1.473.003-1.667-1.101-1.667-1.101-.014-.833c-.014-.817-.026-.835-.589-.926-.919-.15-1.028-.28-.934-1.116l.084-.748-.662.089c-1.567.21-1.539-1.235.035-1.864.624-.249 1.953-.217 2.488.06m-14.192.463c.223.465.776.83 1.535 1.011.23.055.718.414 1.084.798.601.631.557.75-.085.229-.548-.446-3.429-.654-4.512-.326-.785.237-1.074.26-1.405.109-.377-.171-.594-.693-.291-.699.069-.001.459-.304.868-.672.598-.539.829-.651 1.187-.572.319.07.474.021.548-.173.159-.415.819-.233 1.071.295m-13.344 2.05c2.523.949 2.471 1.241-.223 1.241-1.847 0-2.089-.031-2-.263a1.9 1.9 0 00.101-.572c0-.865.598-.98 2.122-.406m-4.198.667c1.337.348 1.337.349.695 1.757-.678 1.484-.854 1.644-2.081 1.889-1.232.246-1.777 1.673-1.208 3.168.111.293.103.56-.027.844-.251.55-.607.529-.721-.042a8.094 8.094 0 00-.272-.958c-.361-.997-.346-1.353.088-2.184.371-.708.424-1.001.391-2.151-.07-2.442.645-2.972 3.135-2.323m9.154.497c.715.714.743 1.005.108 1.132-1.32.264-2.026-.411-1.34-1.282.445-.566.527-.556 1.232.15m19.413.337c.804.872 1.505 2.262 1.508 2.99.002.275.227.95.501 1.5.275.55.499 1.137.5 1.303.001.51.289.884 1.168 1.516 1.255.901 1.459 1.738.504 2.071-.441.154-.463.206-.38.937.076.677.031.833-.362 1.243-.343.358-.465.676-.515 1.344-.086 1.165-.368 1.435-1.756 1.683-1.427.255-1.517.191-2.006-1.4-.202-.658-.469-1.345-.593-1.525-.337-.49-.28-.871.277-1.845l.504-.88-.35-.89c-.193-.489-.462-1.014-.598-1.165-.136-.151-.351-.669-.478-1.15-.139-.524-.435-1.085-.739-1.4-.924-.953-.386-1.721.824-1.175 1.101.496 1.702-.083 1.152-1.111l-.201-.377-.137.369c-.285.772-3.381-.198-3.839-1.203-.404-.887 1.981-1.758 3.017-1.103.171.108.309.058.468-.169.354-.505.774-.385 1.531.437m16.787 2.099c.597.561 1.297 2.471 1.011 2.758-.324.323-.993.042-1.633-.687-.278-.317-.783-.665-1.122-.774-1.18-.379-1.643-1.311-.825-1.66.597-.255 2.143-.037 2.569.363m-4.72 2.071c.778 1.324.777 2.224-.003 2.234-.423.006-1.2-.873-1.564-1.769l-.383-.944.371-.3c.529-.429 1.008-.192 1.579.779m-114.457-.475c-.067.067-.509.16-.982.208-.753.076-.882.145-1.021.542-.18.513-.027.791.272.493.593-.594 1.38-.136 1.38.802 0 .71.751.757 1.283.081.167-.214.529-.438.803-.498.498-.109.635-.441.361-.873-.101-.159-.28-.131-.776.122-.788.402-1.169.204-1.023-.531.09-.449-.041-.602-.297-.346m98.73.851c1.086 1.085.985 2.694-.168 2.694-.58 0-.626.165-.163.584.679.614.099 2.002-1.422 3.404-1.016.936-1.244.9-1.244-.196.001-1.404.575-2.134 1.866-2.377.702-.131.934-.498.472-.745-.174-.094-1.371-.17-2.661-.17-2.497 0-2.551.017-3.128.932-.191.302-.228.29-.72-.239-.917-.985.057-1.523 2.759-1.525 1.128-.001 1.602-.07 1.898-.277.311-.217.458-.235.701-.083.444.277.482.247.374-.294-.074-.367-.011-.56.254-.787.277-.237.331-.418.25-.847-.133-.71.265-.742.932-.074m10.048 1.334c1.584 1.045 2.508 4.198 1.555 5.306-.569.662-1.33.417-1.392-.449-.166-2.285-.672-3.546-1.569-3.905-.66-.264-.828-.67-.439-1.058.298-.299 1.32-.24 1.845.106m11.252.536c2.879 1.438 6.648 7.41 7.54 11.946.477 2.422-.919 2.442-1.812.026-.557-1.506-.843-1.718-1.487-1.101-.631.605-.614.615-1.107-.675-.522-1.367-.527-1.49-.077-1.855.457-.37-.254-1.765-2.054-4.027-.26-.327-.722-1.189-1.028-1.917-.674-1.606-1.252-1.895-1.69-.845-.339.81-.488.849-.984.26-.651-.774-.338-1.587.804-2.084.708-.308.746-.303 1.895.272m-158.052.499c-.106.171 1.146 3.532 1.473 3.956.298.386.532.103.532-.642 0-.957-.072-.944 5.377-.969l4.378-.02-.044 15.098-.045 15.098-.467.402c-.257.221-.609.402-.781.402-.601 0-1.167.31-1.063.581.146.381 9.145.304 9.145-.079 0-.17-.26-.285-.834-.366-1.864-.265-1.776.605-1.715-16.886l.049-14.166 4.416-.041c5.094-.047 5.25-.016 5.25 1.048 0 .909.399.868.864-.091 1.228-2.53 1.503-4.384.451-3.039l-.422.539H101.669l-.445-.5c-.478-.535-.642-.601-.812-.325m13.673 1.159c12.289 0 13.121-.035 13.451-.552.29-.456.107.29-.38 1.554-.461 1.193-.894 1.889-.814 1.306.178-1.294.12-1.308-5.357-1.308h-4.825l.045 15.208c.05 16.766-.018 15.762 1.095 16.165.931.338.201.437-3.217.437-3.187 0-4.446-.15-3.25-.386.686-.135 1.04-.371 1.306-.872.144-.269.194-4.302.194-15.458V61.167l-4.791.002c-5.107.003-5.184.015-5.468.86l-.184.545-.266-.745a65.54 65.54 0 00-.619-1.642l-.353-.896.52.438.52.438h12.393m72.571.076c8.793 2.426 12.92 11.053 9.891 20.674-2.883 9.156-12.4 14.403-21.88 12.063-17.255-4.258-13.604-30.718 4.583-33.217 1.603-.22 5.871.056 7.406.48m54.964-.474c-.044.044-.003.386.092.76.124.489.119.83-.02 1.213-.267.74-.242.925.13.925.315 0 .374-.107.581-1.037.056-.25.25-.534.432-.631.421-.225.425-.604.01-.826-.549-.294-1.14-.489-1.225-.404m16.784 1.689c.431.986 1.195 2.842 1.698 4.125a250.714 250.714 0 001.501 3.75 487.788 487.788 0 013.098 7.75c.466 1.192.949 2.333 1.073 2.536.124.203.226.451.226.551 0 .1.332.947.739 1.881.406.934.865 2.074 1.02 2.532 1.539 4.558 2.987 7.315 4.118 7.839 1.095.507.761.574-2.877.573-2.735 0-3.763-.128-3.095-.384.463-.178.602-.85.358-1.728-.223-.8-2.32-6.043-2.92-7.3a18.772 18.772 0 01-.672-1.729 32.542 32.542 0 00-1.005-2.5l-.649-1.437h-9.752l-.907 2.333c-.499 1.283-1.621 4.133-2.492 6.333-2.091 5.278-2.109 5.34-1.693 5.756.18.18.402.328.494.328.091 0 .166.075.166.166 0 .104-.889.167-2.333.167-2.527 0-2.784-.095-1.497-.552 1.276-.453 1.181-.258 5.986-12.281.384-.963.851-2.125 1.036-2.584.186-.458.864-2.183 1.508-3.833a334.69 334.69 0 011.753-4.417c.321-.779.811-2.016 1.088-2.75 1.389-3.673 1.692-4.431 2.246-5.625.77-1.66.848-1.638 1.784.5m31.007-1.379c2.536.487 2.229.239 3.073 2.491.826 2.206.855 2.166-.583.794-4.454-4.247-11.527-3.408-13.459 1.598-.79 2.043-.158 5.112 1.29 6.267 1.322 1.056 1.937 1.336 6.435 2.934 8.048 2.859 10.859 7.676 7.969 13.655-1.987 4.111-4.545 5.077-13.469 5.091l-5.084.008-.02-4.667c-.011-2.567.007-4.479.041-4.25.903 6.165 2.842 7.889 8.896 7.909 5.674.018 8.75-2.322 8.75-6.659 0-3.48-1.646-5.091-7.237-7.086-5.88-2.098-7.355-3.076-8.604-5.709-3.616-7.619 2.725-14.158 12.002-12.376m-146.114.159c.162.354.081.574-.664 1.791-1.604 2.625-2 3.336-2.718 4.882-.395.852-.894 1.673-1.109 1.824-.329.232-.389.418-.389 1.212 0 .965-.291 1.38-.501.717-.075-.236-.201-.321-.376-.254-.458.176-.535-.259-.537-3.046-.003-3.046.061-3.277.951-3.441 1.684-.31 3.024-1.26 4.135-2.931.852-1.283.942-1.339 1.208-.754m108.84-.093c.122.077.295.469.385.872.09.403.572 1.535 1.071 2.515.499.98.907 1.867.907 1.972 0 .371-.876 2.416-1.117 2.609-.136.108-.371.445-.523.75-.649 1.299-2.389.232-2.756-1.69-.06-.318-.311-.788-.558-1.045l-.447-.467.359-.359c.481-.482 1.545-.19 2.297.632.834.91.946.551.162-.517-.818-1.113-.937-1.519-.821-2.801.091-1.002.064-1.248-.16-1.433-.776-.645.323-1.595 1.201-1.038m-113.22.188c-.057.092-.27.167-.473.167-.535 0-1.111.46-1.378 1.1-.323.773-.346 13.999-.024 14.091.114.032 4.164.038 9 .012l8.791-.048v-6.869c0-7.921.002-7.906-1.291-8.193-1.44-.319-.611-.426 3.291-.426 2.556 0 4 .06 4 .166 0 .092-.219.167-.487.167-.281 0-.704.183-1 .431l-.513.432v30.241l.465.445c.255.245.705.493 1 .552 1.347.27.222.399-3.465.399-4.017 0-4.647-.091-3.24-.467 1.255-.336 1.24-.237 1.24-8.611v-7.255l-8.333-.034c-4.583-.018-8.615-.037-8.958-.041l-.625-.009v15.111l.544.486c.299.268.731.487.958.487.228 0 .414.07.414.156 0 .092-1.605.162-3.916.171-3.647.014-4.805-.124-3.344-.398 1.659-.311 1.614.183 1.546-16.846-.061-15.252-.025-14.719-1.016-15.088-.286-.106-.67-.256-.853-.333-.193-.081 1.371-.145 3.718-.151 2.662-.007 4.016.046 3.949.155M210.288 65c1.134 2.612 2.539 5.875 3.123 7.25.583 1.375 1.675 3.925 2.426 5.667 4.351 10.087 3.802 9.257 4.723 7.143a9706.38 9706.38 0 009.04-20.977c.589-1.375 1.241-2.8 1.449-3.166l.378-.667 2.466-.046c2.28-.043 3.031.103 1.8.349-1.187.237-1.957 1.475-1.812 2.913.238 2.362.503 4.383.865 6.617.47 2.895.715 4.581 1.415 9.75 1.688 12.453 1.656 12.314 2.897 12.636 1.448.375.601.531-2.877.531-3.665 0-3.844-.035-2.966-.586.816-.511.761-1.809-.384-9.164-.085-.55-.456-3.138-.823-5.75l-1.121-7.961c-.25-1.766-.521-3.189-.603-3.161-.122.04-1.939 4.103-3.856 8.622-.214.504-.817 1.892-1.341 3.083a894.91 894.91 0 00-1.745 4 2442.891 2442.891 0 01-3.974 9.167c-.848 1.937-.91 1.915-2.074-.75-.54-1.237-1.361-3.112-1.824-4.167a83.671 83.671 0 01-1.224-2.916c-.21-.55-.605-1.45-.877-2-.471-.953-2.301-5.118-5.124-11.667-1.842-4.274-1.632-4.383-2.401 1.25-.685 5.02-1.539 11.184-1.928 13.917-1.026 7.213-1.023 7.353.18 7.655 1.029.258.263.428-1.929.428-2.333 0-2.885-.138-1.709-.429 1.011-.25 1.087-.549 2.286-8.988 3.24-22.796 2.942-20.003 2.261-21.191-.593-1.034-1.171-1.515-2.124-1.77-1.327-.355-.727-.463 2.316-.417l3.031.045 2.06 4.75m-33.316-3.507c-12.574 2.303-14.991 18.257-4.083 26.946 11.883 9.465 27.725-3.406 20.952-17.022-3.152-6.336-11.06-10.989-16.869-9.924m61.159 1.267c.542.38 2.702 5.987 2.702 7.014 0 1.184-1.735 1.483-2.867.494-.918-.804-1.294-.927-1.622-.531-.946 1.14-1.38.634-1.674-1.951-.257-2.272-.191-2.556.648-2.782.742-.2.849-.388.849-1.504 0-.488.082-.839.208-.89.445-.179 1.402-.098 1.756.15m8.705 1.242c.98.524 3.193 3.816 2.891 4.299-.625.996-1.453.485-2.969-1.832-1.502-2.295-1.47-3.296.078-2.467m-.135 3.253c.646.736.988 1.284 1.064 1.706.147.817.296.982 1.009 1.116.328.061.776.306.997.545.355.383.515.428 1.398.397 1.264-.046 1.265-.138-.06 3.147-1.106 2.738-1.267 2.93-2.034 2.427-.574-.376-.53-.909.093-1.145.611-.23.563-.514-.099-.581-.89-.089-1.56.822-1.644 2.236-.089 1.498.003 1.642.968 1.509 1.003-.137 1.007-.114.275 1.721l-.631 1.584-1.251.175c-.859.12-1.461.313-1.918.615-.782.518-.868.471-.868-.476 0-.629-.088-.795-.75-1.416-.921-.863-.932-1.113-.083-1.795.909-.731.913-1.352.013-2.441-.887-1.074-.89-2.079-.004-2.079.062 0 .32-.313.574-.696.253-.383.686-.902.963-1.155.471-.43.496-.515.4-1.325-.175-1.48-.37-1.639-1.952-1.584-1.411.05-1.695-.06-1.909-.735-.243-.763.959-1.838 2.053-1.838.532 0 .814-.114 1.234-.495.797-.725 1.083-.648 2.162.583m9.046-.485a539.705 539.705 0 00-3.108 7.601c-1.148 2.883-1.458 2.653 3.531 2.614 4.685-.036 4.498.024 3.932-1.276-.23-.528-.79-1.934-1.245-3.126-2.294-6.013-2.701-6.773-3.11-5.813m.326 2.282c.219.621-.043 1.017-.715 1.084-.616.061-.702-.311-.265-1.155.317-.612.751-.581.98.071M130.34 70.768c-.445 1.439-.439 1.732.035 1.734.206.001.656.048 1 .105.827.137.853-.412.091-1.899-.664-1.295-.708-1.292-1.126.06m127.792.607c.894 2.178.971 2.459.713 2.618-.176.109-.207.434-.133 1.407l.096 1.267h-3.321c-2.622 0-3.32-.046-3.32-.218 0-.273 1.953-5.135 2.136-5.319.135-.135.944.068 1.666.418.42.203.69-.022.695-.578.003-.336.439-.803.749-.803.122 0 .446.543.719 1.208m-13.665-.508c.501.501-.143 1.3-1.05 1.3-.566 0-.584.019-.584.644 0 1.494-1.063 1.923-1.88.758-1.247-1.778-.407-3.336 1.156-2.144.307.234.558.343.558.243 0-.651 1.349-1.252 1.8-.801m-106.573 1.312c.791.622.538 3.238-.313 3.238h-.498L137.034 74c-.075-2.179.055-2.455.86-1.821m80.501.829c.949.419.966.67.105 1.532-.804.803-1.082.688-1.209-.501-.046-.434-.139-.92-.205-1.081-.168-.403.328-.384 1.309.05m41.584 3.097c.225.493.157.649-.222.504-.264-.101-.369-.942-.117-.942.077 0 .23.197.339.438m-17.174.958c.066.336-.277.807-.491.675-.174-.107-.198-.799-.033-.964.181-.18.464-.024.524.289m-104.877.729c-.474 4.092-.898 4.528-.918.944-.011-1.825.014-1.903.62-1.903.399 0 .406.023.298.959m121.155.336c.092.067.283.347.426.622.233.45.339.5 1.056.5h.798l.569 1.407c.693 1.716.693 1.62-.002 1.91-.314.131-.703.451-.864.711-1.036 1.67-1.897 1.958-2.846.952-.782-.83-.813-.673-.202 1.039.659 1.851.669 1.861 1.413 1.468.628-.331.742-.513 1.051-1.668.287-1.077 2.074-1.893 2.639-1.206.259.316 3.046 7.324 3.046 7.661 0 1.518-1.422.773-1.613-.846-.126-1.057-.814-1.629-2.108-1.75-.526-.05-.96-.217-1.295-.499l-.505-.425-.628.32-.627.32-1.404-1.599c-2.202-2.509-2.893-3.032-4.015-3.041-.244-.002-.473-.09-.508-.196-.065-.195-1.436-.62-2.047-.635-.791-.02-1.584-.357-1.584-.673 0-.348 1.434-3.956 1.706-4.292.187-.231 7.236-.307 7.544-.08m-127.918 3.375c-.133.249-.123.455.038.792.442.922 1.019.311.642-.681-.203-.533-.434-.571-.68-.111m82.414.989c.345.667.341.675-.379.675-1.024 0-1.336-.492-.575-.905.626-.34.664-.33.954.23m-75.415 3.709c.77 2.145.749 2.117 1.876 2.533 1.052.389 1.057.412.386 1.677-.841 1.585-.535 2.648 1.378 4.787 1.151 1.287 1.436 2.161.948 2.905-.393.601-.307.629 1.877.611 1.729-.013 1.996.023 2.312.315.406.374.468.315.635-.609.258-1.425.78-1.649 1.383-.592l.376.658-.509 1.003-.51 1.002-2.436.046c-2.719.052-3.077.213-1.765.793 1.415.626 2.673 2.319 2.001 2.695-.378.211-.356.677.07 1.513.275.539.332.871.257 1.503-.091.765-.075.808.272.76.601-.083.515.414-.595 3.449l-1.037 2.833-.833.134c-.458.074-1.233.257-1.722.407-.766.235-.938.241-1.25.041a19.221 19.221 0 00-1.195-.657c-1.113-.569-1.183-1.002-.254-1.589 1.52-.959 1.769-2.498.73-4.518-.425-.825-.578-1.304-.507-1.586.183-.728 1.078-1.892 1.781-2.316 1.431-.864 1.705-1.332.778-1.332-1.035 0-1.531-1.261-1.048-2.662.292-.847.265-.936-.204-.685-.46.246-1.313.227-1.476-.032-.073-.117-.323-.333-.555-.48-1.479-.938-1.772-2.813-.529-3.39.83-.386 1.039-.882.633-1.502a1.068 1.068 0 01-.163-.85c.13-.517-.12-.726-.868-.73-.892-.005-1.551-1.232-1.321-2.459.136-.723.599-.414 1.119.748.415.928.536.895.417-.114-.118-.998-.662-2.117-1.095-2.254-.411-.131-.516-.557-.517-2.09 0-1.602.167-2.708.339-2.244.067.18.437 1.205.821 2.278m78.294 3.007c.123.098.209.557.209 1.12 0 .83.086 1.088.666 1.985.367.567.667 1.104.667 1.192 0 .088.319.392.708.677 1.385 1.012 3.041.503 3.849-1.182.43-.897 1.455-1.233 1.43-.469-.038 1.188-1.366 3.014-2.71 3.73-1.307.696-2.61 1.789-2.61 2.189 0 .385.421.231 1-.367.89-.919 2.902-.479 3.27.715.048.157.157.416.242.575.519.972-.475 1.391-2.01.846-.768-.273-.822-.271-1.753.086-1.502.575-2.665-.134-2.064-1.257.186-.347.177-.473-.061-.853-.839-1.335-.864-1.443-.457-1.994 1.139-1.541-.665-2.943-3.135-2.437-1.638.335-1.643.342-1.271 1.602.217.735.312 1.598.316 2.875l.006 1.825 1.583.31c5.118 1.002 8.597 5.509 10.161 13.166.219 1.071.245 1.093.738.627 1.085-1.025 1.257-1.238 1.354-1.68.058-.267.176-.528.262-.581.267-.166 1.804 1.138 1.812 1.538.023 1.189-2.795 2.645-3.493 1.804-.403-.486-.5-.234-.5 1.3 0 1.757.101 1.95 1.03 1.95.563 0 .664-.068.958-.644.71-1.392 1.68-2.189 2.662-2.189.931 0 .983.681.153 1.991-.883 1.392-.459 1.885.813.946.44-.325.95-.697 1.132-.827.329-.234.329-.24-.046-.991-.222-.444-.392-1.121-.415-1.646l-.037-.89 1.01.056c.555.031 1.268.11 1.583.176l.573.12-.018 1.256c-.035 2.32-.615 3.92-1.967 5.424-.935 1.039-.944 1.215-.095 1.803.818.567.78.605 1.015-1.012.188-1.301.482-1.906.924-1.906.18 0 .225.601.225 3.018v3.018l-.459-.121a5.498 5.498 0 00-.708-.143c-.385-.034-.947 1.26-1.078 2.481-.111 1.045-1.049 2.217-1.792 2.243-.066.002-.141-1.028-.167-2.288-.052-2.55-.409-3.292-.663-1.375-.416 3.149-1.063 4.465-2.569 5.224-1.177.593-5.157.85-5.564.359-.274-.33-.818-.319-.947.019-.22.572-4.265-.192-5.154-.973-.767-.674-.719-.873.361-1.483.51-.287 1.048-.707 1.196-.933.147-.225.801-.803 1.452-1.285 1.65-1.22 2.965-4.007 3.594-7.621.396-2.272-.659-8.184-1.895-10.621-.307-.606-.649-1.379-.759-1.716-.533-1.636-2.259-3.709-3.875-4.652-.627-.367-1.14-.748-1.14-.849 0-.324.567-.625 1.188-.63.649-.006 1.039-.305.833-.639-.252-.406-8.938-.196-8.938.217 0 .274.142.349.794.424 1.258.145 1.364.344 1.43 2.704l.056 2.034-.352-.319c-.28-.254-.394-.276-.557-.112-.162.165-.091.309.338.694l.541.487v9.511l-.694-.354c-1.608-.82-5.472 1.168-5.472 2.816 0 1.306.218 1.321 1.608.109 2.606-2.272 4.558-2.583 4.558-.725 0 .976-.006.989-.375.797l-.375-.195.375.408c.41.447.564 2.668.201 2.892-.122.075-.121.174.003.323.117.141.163 1.379.133 3.61l-.045 3.396-.874.05c-.794.046-.924.112-1.409.716-.294.365-.782.818-1.084 1.005-.655.404-.704.762-.133.979.36.136.417.261.417.912 0 .559.064.754.25.754.137 0 .251-.093.253-.208.03-1.92.44-2.881 1.294-3.036.341-.061.788-.152.994-.202.351-.084.375-.036.375.748 0 1.334-.469 1.865-1.648 1.865-.555 0-.736.174-.586.563.081.211.465.269 2.042.307 2.368.057 2.462.187 1.364 1.873-1.82 2.793-4.103 4.072-5.369 3.007-.272-.229-.702-.417-.955-.417-.339 0-.655-.214-1.196-.809l-.735-.809-1.57-.122c-1.03-.08-1.774-.232-2.164-.441-.327-.175-.804-.319-1.061-.319-1.647 0-2.682-1.243-2.566-3.083l.085-1.333.804-.717c1.1-.979 1.51-1.248 1.715-1.121.241.149.219 2.353-.028 2.748-.163.261-.147.437.083.918l.283.596 3.126-.046c3-.043 3.126-.058 3.126-.378 0-.267-.143-.353-.716-.429-1.521-.203-1.992-1.437-.757-1.982.781-.344 2.057-1.415 2.057-1.726 0-.09-.585-.104-1.417-.035l-1.417.118v-5.16l.41-.103c.226-.057.732.009 1.125.146 1.292.45 1.348-.009.139-1.14-.911-.852-1.162-.937-1.292-.439-.309 1.181-.382-.72-.382-9.967 0-11.623-.006-11.572 1.161-9.992.475.643.52.809.485 1.792-.051 1.406.333 1.55 1.392.522l.69-.67-.197-1.07c-.385-2.091-.166-2.81.923-3.036 1.992-.413 1.997-.467.378-4.246-.69-1.611-1.001-1.939-1.97-2.078-1.163-.166-2.045-.456-1.98-.649.124-.373 1.183-.456 4.618-.36 3.404.094 3.611.082 4.127-.239 1.116-.694 1.504-2.039.933-3.237-.502-1.052-.33-1.144 1.898-1.011 1.077.064 2.053.191 2.167.282m46.276.67c1.274.728 1.621 1.958.552 1.954-.394-.002-1.682-.942-2.092-1.528-.523-.747.489-1.027 1.54-.426m-47.461 1.571c-.199.199-.107.551.144.551.137 0 .25-.108.25-.24 0-.279-.238-.467-.394-.311m-80.406 1.918c-.156.155-.245.155-.4 0-.156-.156-.111-.2.2-.2s.355.044.2.2m3.552-.03c.246.398-.487 1.405-1.156 1.589-1.251.345-1.367 1.208-.313 2.325l.592.628-.114 1.256c-.075.831-.224 1.411-.438 1.712-.178.25-.323.537-.323.637 0 .227-.279.24-.415.019-.056-.09-.618-.498-1.248-.906-1.264-.817-1.504-1.133-1.504-1.975 0-.719-.144-.861-.524-.517-.282.255-.311.245-.463-.154-.089-.235-.672-.802-1.296-1.261-1.974-1.454-1.945-1.424-1.832-1.874.262-1.044 3.138-1.783 3.944-1.012.915.875 2.838.597 2.838-.41 0-.276 2.084-.329 2.252-.057m65.603 1.597c.856.43 1.987 2.19 2.492 3.88.484 1.617-1.34 2.095-2.301.603a46.077 46.077 0 00-.755-1.144c-.139-.198-.549-.363-1.13-.453-1.63-.254-2.292-1.462-1.367-2.497.704-.788 1.95-.946 3.061-.389m-4.855.99c0 .546-.697 1.243-1.243 1.243-.644 0-.516-.384.353-1.061.926-.721.89-.714.89-.182m-53.289.021c1.285.344 1.352.4 1.108.935-.451.991-1.9.957-3.072-.071-1.233-1.083-.333-1.479 1.964-.864m69.758.47c.712.906.646 2.097-.14 2.503-1.117.578-2.395.105-2.367-.877.044-1.544 1.717-2.629 2.507-1.626m20.716.3c-.136.136-.185.117-.185-.071 0-.331.224-.555.307-.307.035.106-.02.276-.122.378m-26.43.876c.145 1.38.338 1.961.621 1.868.523-.172.16-2.278-.485-2.814-.231-.191-.246-.091-.136.946m29.087-.424c.418 0 .532.134 1.07 1.253.332.689.823 1.503 1.092 1.809.667.761.634.771-2.449.771-3.015 0-3.201-.084-1.73-.78 1.311-.621 1.32-.913.019-.574-1.111.289-1.678.044-1.678-.726 0-.541 2.078-1.934 2.73-1.83.263.042.689.077.946.077m-107.378 1.458c.533.465.614 1.682.12 1.806-.745.187-1.171.024-1.126-.431.022-.229.051-.698.064-1.042.026-.711.369-.832.942-.333m69.865.706c.835.426 1.213.946.99 1.361-.269.503-2.866.453-3.227-.062-.872-1.246.631-2.118 2.237-1.299m-4.51.966c.743.555.629.703-.546.703-.598 0-1.135.078-1.195.174-.185.3.273.659.84.659 1.206 0 1.571.991 1.578 4.282.004 1.623-.089 1.852-.597 1.468-.573-.434-1.233-.322-1.23.209.003.622.162.827.749.967.928.222 1.082.494 1.082 1.917v1.291l-.584.344c-.34.201-.592.486-.604.683-.011.187-.035.996-.052 1.798-.066 3.022-1.565 6.1-2.767 5.681-.884-.309-1.197-.138-1.577.858-.354.932-.69 1.224-1.626 1.415-.79.162-1.493.929-1.518 1.657-.029.838.333 1.097 1.098.783 1.952-.801 3.086-.127 2.251 1.337-.228.4-.462.931-.52 1.181-.199.856-.591.864-2.199.043-.806-.411-1.657-.748-1.892-.75-.705-.004-.969-.253-.709-.671.569-.919.94-2.584.944-4.243l.005-1.666h.658c.835 0 1.376-.704.905-1.175-.245-.245-.319-.24-.891.067-.824.442-1.002.34-1.213-.692a17.242 17.242 0 00-.296-1.242c-.091-.286-.053-.375.157-.375 1.407 0 2.93-1.873 2.93-3.604 0-.589.083-.753.57-1.125 1.281-.977 2.263-4.098 2.263-7.191s.454-4.144 1.177-2.727c.469.92.702.655.74-.839.043-1.719.799-2.164 2.069-1.217m37.181-.286c0 .339-.347.822-.59.822-.324 0-.309-.318.032-.695.308-.34.558-.397.558-.127m-93.587 1.279c1.458 2.173.925 2.971-1.939 2.904-1.323-.031-1.482.001-1.94.386-.851.716-1.618.386-.987-.424.239-.307 1.681-.741 1.936-.583.488.302.891-.253.808-1.114-.07-.729-.015-.938.409-1.567.651-.964.827-.923 1.713.398m85.217-.729c.433.216 1.068.485 1.411.596.741.24.735.218.212.741-.237.237-.459.703-.522 1.095-.195 1.224-2.053 2.566-2.831 2.046-.685-.457-.542-1.385.281-1.837.287-.157.682-.414.879-.571l.356-.286-.625-.6c-.677-.65-.792-1.131-.333-1.398.376-.219.27-.239 1.172.214m-93.13.185c0 .043-.225.195-.5.337-.685.354-.663 1.041.102 3.167.33.917.935 2.604 1.345 3.75 1.285 3.592 1.518 4.221 1.976 5.319.437 1.05 2.125 5.732 3.43 9.514 1.702 4.934 1.723 4.951 2.486 2.006.106-.409.516-1.572.911-2.583a74.36 74.36 0 001.255-3.506c.295-.917.595-1.742.666-1.833.072-.092.258-.617.415-1.167.156-.55.385-1.225.51-1.5.359-.795 1.83-4.892 2.206-6.144l.342-1.141-.51-1.357c-.281-.747-.633-1.682-.781-2.079-.344-.917-1.214-1.947-1.995-2.36l-.608-.321 1.416-.008a98.52 98.52 0 003.542-.116c2.02-.103 2.773.048 1.791.359-.921.293-.897.415 1.173 6 2.509 6.772 4.606 12.575 5.33 14.75.662 1.988 1.782 5.007 1.902 5.127.194.194.384-.227 1.305-2.877.51-1.466 2.443-6.897 4.295-12.067 3.695-10.314 3.767-10.566 3.1-10.87-.82-.374-.439-.479 1.729-.479 2.159 0 2.67.15 1.728.508-1.4.532-1.876 1.371-3.634 6.408a493.186 493.186 0 01-1.679 4.75c-.219.596-.815 2.265-1.324 3.709-1.902 5.4-2.746 7.759-2.975 8.309a39.208 39.208 0 00-.611 1.649c-2.595 7.473-2.704 7.75-3.067 7.75-.242 0-.562-.725-1.618-3.667a357.46 357.46 0 00-2.052-5.583 290.937 290.937 0 01-2.604-7.167c-.11-.32-.488-1.333-.839-2.25a88.796 88.796 0 01-1.239-3.501c-.952-2.914-.898-2.919-1.971.168a130.013 130.013 0 01-1.371 3.75 47.82 47.82 0 00-.951 2.667c-.442 1.438-1.648 4.837-2.471 6.962a87.11 87.11 0 00-1.324 3.753c-.894 2.761-1.767 4.858-2.047 4.917-.235.049-.42-.417-3.45-8.716a267.53 267.53 0 00-1.928-5.141c-.885-2.214-3.072-8.247-3.077-8.484-.002-.115-.195-.658-.429-1.208-.234-.55-.834-2.16-1.333-3.578-1.478-4.194-2.196-5.373-3.424-5.618-1.26-.252-.148-.387 3.19-.387 2.017 0 3.667.035 3.667.079m49.375.671c.023.091-.296.206-.709.254-1.744.204-1.667-.348-1.664 11.865.002 9.639.025 10.493.327 11.957 1.577 7.64 9.81 9.576 16.296 3.833l1.541-1.366v-12.402c0-14.364.053-13.967-1.866-14.081-1.265-.074 2.437-.259 4.908-.244 2.832.016 3.948.225 2.375.443-1.892.262-1.786-.733-1.717 16.241.068 16.686-.072 15.464 1.82 15.918.343.082-.612.125-2.436.108l-3-.026-.047-2.292c-.052-2.578-.035-2.555-1.144-1.578-2.356 2.076-2.942 2.444-5.225 3.286-5.781 2.131-12.102.376-14.402-4-1.196-2.274-1.156-1.793-1.215-14.666-.062-13.706.023-13-1.551-13-.485 0-.666-.069-.666-.253 0-.305 8.299-.302 8.375.003m70.819-.045c.186.293.169 3.156-.021 3.456-.118.187-.237.052-.508-.584-.813-1.9-1.015-1.945-8.415-1.879l-5.667.052-.043 7.216-.044 7.217 5.767-.05 5.766-.05.394-.458c.548-.637.577-.603.574.666-.003 1.181-.217 1.867-.418 1.341-.213-.553-1.036-.632-6.604-.632h-5.475l.001 6.625c.002 8.846.056 9.132 1.797 9.489l.618.126-.882.093c-1.699.18-7.553-.022-6.717-.232 1.546-.388 1.426.852 1.477-15.322.053-16.705.072-16.497-1.541-16.759-.353-.058-.668-.18-.698-.271-.09-.27 20.468-.313 20.639-.044m22.769.055c.283.088.217 4.097-.068 4.192-.107.035-.24-.213-.306-.57-.513-2.754-.439-2.729-7.877-2.676l-6.129.044v14.666h5.695c5.603 0 5.702-.006 6.189-.366.634-.468.699-.384.699.894 0 1.137-.052 1.211-.546.764-.291-.264-.878-.296-6.232-.339l-5.91-.048.053 6.464c.074 9.219-.637 8.465 7.981 8.465h6.095l.687-.455c.556-.368.741-.628.976-1.375.436-1.382.579-1.123.527.955l-.047 1.875-6.834.083c-9.327.114-15.576-.009-14.661-.288 1.628-.497 1.533.577 1.47-16.629-.058-16.094.011-15.416-1.571-15.416-.455 0-.739-.194-.554-.378.101-.102 20.029.033 20.363.138m-140.668.775c.341.562.27.637-.461.487-.734-.15-1.153-.821-.717-1.147.343-.256.766-.019 1.178.66m80.177-.711c-.94.183-1.439.591-1.59 1.299-.316 1.493-.155 26.229.178 27.184.866 2.487 2.277 3.026 7.923 3.026 5.763 0 7.083-.795 7.703-4.636.32-1.989.493-1.049.442 2.419l-.045 3.134-7.75.12c-9.752.152-14.975.032-13.785-.317 1.566-.459 1.453.804 1.434-15.97-.018-17.024.105-15.894-1.763-16.255-.35-.068 1.276-.123 3.614-.123s3.975.053 3.639.119m-82.972.342c0 .184-.075.334-.167.334-.092 0-.167-.15-.167-.334 0-.183.075-.333.167-.333.092 0 .167.15.167.333m113.331.833c.135.083.116.297-.065.766-.138.358-.245.839-.237 1.068.009.229-.085.657-.208.951-.281.676.46 2.427 1.171 2.766.679.323.64 1.048-.148 2.76-.373.808-.678 1.577-.678 1.708 0 .346-.809 1.482-1.056 1.482-.141 0-.188-.187-.143-.572.078-.673-.21-1.645-.579-1.952-.564-.468-1.253.907-.872 1.743.419.921-.756 2.012-2.072 1.924-.613-.041-.686-.008-.628.28.191.933.149.991-.775 1.044l-.875.05v-3.834l.505-.471c.695-.65.788-1.404.35-2.848l-.353-1.159.41-.733c.73-1.306.847-2.317.421-3.64-.202-.628-.316-1.224-.254-1.324.125-.203 5.76-.211 6.086-.009m22.097-.038c.099.067.228.253.287.414.148.402.39.365.816-.125.403-.464 3.481-.62 4.831-.245.893.248 1.396 1.323 1.364 2.911-.041 2.062-2.56 11.087-3.157 11.316-.317.122-6.311.137-6.432.017-.046-.047.166-.804.473-1.683.796-2.285.718-2.647-.444-2.057-1.088.553-2.666 2.556-2.666 3.383 0 .48-1.098.615-1.223.149-.146-.547-.112-7.624.039-7.857.123-.191.237-.169.65.125.695.495.898.457 1.815-.337.441-.382 1.196-.868 1.677-1.081.802-.355.875-.433.875-.941 0-.82-.388-1.305-.651-.814a.695.695 0 01-.582.364c-.214 0-.568.134-.786.298a5.1 5.1 0 01-.856.496c-.252.109-.458.303-.458.432 0 .53-.463.657-1.058.29l-.566-.35-.12-2.173c-.09-1.611-.068-2.235.082-2.416.219-.264 5.721-.369 6.09-.116m-134.193.89c.825.617.927.762 1.021 1.459.208 1.533.664 1.998 1.432 1.46.548-.384 1.259-.347 1.486.077.458.857-1.71 1.857-2.593 1.196-1.236-.925-3.134-4.877-2.343-4.877.045 0 .494.309.997.685m108.512.657c-.122.384.167.825.541.825.17 0 .21-.091.127-.292a6.74 6.74 0 01-.204-.583c-.112-.392-.331-.369-.464.05m-27.218.45c.815.731 3.405 4.594 4.24 6.324 2.188 4.535 1.853 9.948-.836 13.501-1.08 1.427-3.733 3.717-4.306 3.717-.07 0-.127-5.438-.127-12.084 0-7.921.057-12.083.166-12.083.091 0 .48.281.863.625m-12.036 2.977c-.116.304-.119.61-.008.928.121.346.1.658-.076 1.156-.385 1.093.295 1.356 1.46.564.337-.229.767-.417.955-.417.461 0 .446-.504-.038-1.295-.209-.342-.46-.771-.558-.955-.307-.572-1.516-.559-1.735.019m40.437-.161c-.058.15-.071.308-.029.35.133.132.432-.134.432-.384 0-.327-.273-.304-.403.034m-103.635.726c.31.59.174 2.071-.243 2.632-.819 1.101-2.518.264-2.412-1.19.113-1.566 2.039-2.613 2.655-1.442m-4.195.396c.819.368 1.297 1.174 1.254 2.113-.02.437.042.843.138.903.378.233.195 1.088-.271 1.265-.626.238-.732.081-1.621-2.407-.895-2.503-.938-2.767-.392-2.375.206.148.608.373.892.501m112.845.207c.273.417.272.448-.031.669-.46.336-.657.2-.716-.494-.063-.749.313-.838.747-.175m-22.14.553c.038.259-.015.357-.166.308-.123-.041-.248-.245-.278-.454-.038-.259.015-.357.166-.308.123.041.248.245.278.454m-10.581.7c.127 1.473.859 2.535 1.177 1.706.111-.288-.51-1.757-.977-2.312-.268-.319-.277-.291-.2.606m51.809-.647c-.155.187-.164.293-.03.376.246.152.373.008.303-.348-.051-.261-.078-.263-.273-.028m-117.934 2.017c.595 1.827.154 2.639-1.017 1.872-.508-.333-.512-.511-.05-2.049.459-1.53.515-1.52 1.067.177m44.479-.28c-.072.35-.14 1.275-.151 2.054-.022 1.489-.533 2.773-1.422 3.578-.71.643.415 1.156 1.199.547.531-.412 1.019-2.983.917-4.828-.1-1.819-.331-2.392-.543-1.351m-46.257 3.918c.247.154.462.151.966-.016 1.198-.395 2.063-.082 2.419.877.353.949.267 1.165-.403 1.018-.385-.084-.588-.024-.9.269-.525.493-.515.821.023.821.264 0 .606.197.9.519l.474.519.291-.444c.161-.244.351-.384.423-.311.256.261 1.486 3.948 1.486 4.456 0 .284.176.778.391 1.097.441.655 3.109 7.671 3.109 8.178 0 .067-.267.04-.592-.06-.432-.133-.736-.131-1.125.007-1.193.421-3.059.324-3.592-.188l-.484-.463-.174.499c-.095.274-.33.582-.52.684a.688.688 0 00-.347.604c0 .709-.456 1.403-.922 1.403-.394 0-.608-.171-1.135-.904-.198-.275-.302-.295-.712-.138-1.192.455-2.486.42-3.445-.091-.496-.265-1.061-.523-1.256-.574-.195-.051-.445-.291-.555-.533-.444-.974.839-1.297 2.419-.609l.81.353.543-.335c.659-.408 1.371-.431 1.783-.059.486.44 1.137.065 1.137-.656 0-1.039.873-1.29 1.722-.496l.489.459-.113-.75c-.063-.413-.299-1.156-.525-1.652-.818-1.791.466-2.368 1.692-.76l.445.584.395-.535c.629-.852.523-1.402-.355-1.841-1.017-.508-1.377-.509-1.617-.005-.273.572-1.159.721-1.649.278-.572-.518-.413-1.271.549-2.603.297-.411.157-.452-.837-.246-1.484.308-1.758.045-1.868-1.789-.087-1.455-.096-1.481-.708-1.994-.747-.627-.756-.805-.139-2.632.745-2.204.856-2.347 1.507-1.941m-7.422.53c.468.309 1.171.724 1.562.922 1.531.775 1.91 1.914 1.265 3.807-.645 1.896-.9 2.053-2.226 1.377-.36-.184-.803-.334-.984-.334-.98 0-1.753-1.58-1.937-3.958-.182-2.349.592-2.954 2.32-1.814m57.327 12.465c-.65.718-2.59-.141-3.442-1.524-.199-.322-.754-1.014-1.234-1.537-1.217-1.325-1.344-1.989-.489-2.549.56-.367 1.173-.056 2.559 1.3 1.129 1.106 1.518 1.214.711.199-.891-1.122-.864-2.175.083-3.224.561-.621 1.752-4.07 1.752-5.074 0-.217.057-.451.125-.52.295-.295.229 12.604-.065 12.929m-52.959-12.153c-.175.872-.545 1.128-.771.533-.161-.423-.138-.523.178-.779.543-.439.715-.368.593.246m107.893.835a88.54 88.54 0 01-.77 2.578c-.766 2.451-.501 2.857 1.002 1.534 1.286-1.132 1.674-3.445.744-4.436-.523-.557-.766-.476-.976.324m-13.093 1.267c.106.171-.69.625-.838.477-.057-.057-.059-.22-.005-.361.105-.273.696-.354.843-.116m23.599.692c.39.546.867.643 1.202.244.648-.772.502-.744 3.995-.744h3.339l-.107.429c-.457 1.82-3.462 7.97-5.779 11.829l-1.369 2.279-.666-.09c-1.863-.25-2.159-1.501-2.097-8.864.025-2.933.073-5.39.107-5.458.167-.34 1.035-.103 1.375.375m-21.42.362c.424.193.475.309.665 1.495.053.334.32.888.593 1.231 1.322 1.663.382 3.412-1.834 3.412-2.18 0-2.46-1.175-1.241-5.195.288-.95.996-1.318 1.817-.943m-13.873 2.957c-.962 1.455-1.592 1.941-2.812 2.167-1.748.325-2.542 1.986-1.566 3.276.272.36.497.748.5.863.019.853.338-.03.338-.936 0-2.735 1.57-2.595 2.087.186.214 1.148.496.721.496-.75 0-1.49.348-2.454 1.669-4.629 1.164-1.916.54-2.07-.712-.177m35.054-.451c-.345.493-.021.872.334.391.272-.368.314-.759.081-.759-.086 0-.273.165-.415.368m-103.365 1.605c.436.459.462.551.291 1.04-.103.295-.187.9-.187 1.345 0 1.121-.239 1.01-.678-.317a29.308 29.308 0 00-.66-1.798 8.59 8.59 0 01-.41-1.238l-.125-.565.645.515c.355.282.86.741 1.124 1.018m-18.062 1.81c0 .374-.373 1.383-.511 1.383-.121 0-.823-1.83-.823-2.145 0-.124.242-.072.667.145.373.191.667.462.667.617m26.783-.668c.493.156 1.264.587 1.713.959.45.372 1.009.81 1.242.974.234.164.474.502.534.75.06.248.473.841.918 1.317.896.956.885.933.625 1.418-.171.32-.281.337-1.5.235-1.551-.129-1.609-.041-.649 1.001.813.882.833 1.234.105 1.844-.309.258-.682.706-.828.994-.212.417-.944.893-1.373.893-.283 0-.57-.656-.571-1.304-.002-1.11-.256-1.884-.832-2.529-.587-.657-.642-1.276-.167-1.879.473-.602.445-.67-.662-1.644-1.197-1.054-1.232-1.133-1.001-2.246.233-1.125.792-1.304 2.446-.783m-5.533.554c0 .136-.169.271-.375.301-.365.051-.521-.269-.258-.532.194-.194.633-.034.633.231m94.715 1.206c-.046 1.149-.068 1.208-.447 1.208-.715 0-.795-.444-.27-1.482.626-1.236.776-1.179.717.274m-111.472-.316c.225.105.461.378.525.607.566 2.046-.858 3.35-3.108 2.847-1.386-.31-1.384-.293-.311-3.15l.27-.719 1.107.112c.609.062 1.291.199 1.517.303m16.274 1.865c.373.49.526.574.893.494.683-.15 1.183.574 1.944 2.809.495 1.456.493 1.532-.044 2.03-.242.224-.603.877-.802 1.45l-.362 1.043-.787-.011c-.649-.009-.77.035-.687.25.141.365.572 2.217.575 2.469.018 1.53-2.42.712-3.251-1.09-.156-.34-.606-.956-.998-1.368-.93-.979-1.106-1.5-.505-1.5.294 0 .477-.12.574-.375.079-.207.269-.675.423-1.042l.279-.667.699.76c.384.419.982 1.094 1.33 1.5l.631.74-.1-1c-.061-.622-.224-1.157-.429-1.416a9.983 9.983 0 01-.615-.898 8.51 8.51 0 00-.639-.908l-.353-.427.46-1.36c.785-2.323.991-2.496 1.764-1.483m66.349-.359c-.068.174-.085.355-.037.403.152.152.286-.097.222-.414-.058-.29-.067-.289-.185.011m-39.485.706c2.245.616 3.655 3.8 1.873 4.228-2.872.689-6.353-.123-6.471-1.51-.051-.603 1.251-2.323 1.759-2.323a.213.213 0 00.208-.216c0-.619.826-.675 2.631-.179m59.04.247c-1.344.537-1.731 1.219-1.171 2.065.398.601.412 1.105.08 2.75-.45 2.225-.457 2.287-.26 2.408.888.549 3.298-2.551 3.832-4.929.412-1.83-.811-2.96-2.481-2.294m-27.109.754c-.132.529.663 2.293.984 2.182.505-.176-.072-2.621-.618-2.621-.14 0-.305.198-.366.439m-44.688 2.304c1.186.496 1.126 2.912-.088 3.525-.857.433-1.286.911-1.286 1.433 0 .693.414.76.928.149.475-.564.989-.657 1.498-.272.178.135.361.247.407.25.046.003.083-.763.083-1.703 0-2.842.417-3.246 2.136-2.069a10.78 10.78 0 003.794 1.629c.661.142.824.253.966.659.208.598.316.613.521.073.144-.379.247-.417 1.125-.417 1.569 0 3.705-.324 5.004-.76 1.859-.624 2.203-.428 2.205 1.255.002 1.108.202 1.447 1.7 2.881 1.024.98 1.117 1.128 1.309 2.104.255 1.298.312 1.319 1.813.68 1.32-.562 1.876-.557 2.184.02.276.515-.183 1.098-1.048 1.33-1.368.367-1.418.41-1.615 1.355-.288 1.387-1.04 2.536-2.225 3.4-.569.415-1.499 1.238-2.066 1.829-1.534 1.597-2.195 1.511-2.461-.321-.094-.648-.258-.951-.813-1.506-.382-.382-.774-.835-.871-1.007-.167-.299-.209-.293-.955.144-.573.336-.906.43-1.255.353-.261-.057-.826-.026-1.255.071-.904.202-1.791-.067-2.096-.636-.686-1.282.991-3.621 2.738-3.818.873-.098 1.01-.374.186-.374-.31 0-.836-.114-1.169-.253-1.443-.603-2.978 1.721-2.368 3.586.708 2.163.172 2.698-1.863 1.861-1.993-.821-2.476-.657-2.939.994-.269.961-.758 1.479-1.396 1.479-.182 0-1.11-.871-2.266-2.125-2.654-2.883-3.284-4.107-3.436-6.673-.07-1.196-.197-1.951-.385-2.286-1.538-2.746 2.497-7.994 5.259-6.84m80.88 1.578c-.061.19-.219.346-.353.346-.203 0-.198-.068.034-.422.314-.48.482-.44.319.076m-14.799.28c-.067.067-.122.236-.122.377 0 .187.049.206.185.07.102-.102.157-.272.122-.377-.035-.106-.119-.137-.185-.07m-90.078 2.909c.205.258.497.647.648.864.499.716 2.266.913 3.424.382 1.389-.635 1.779-.579 2.315.337 1.545 2.637-1.063 5.948-3.035 3.852-.467-.496-.92-.788-1.455-.938-1.808-.506-4.295-3.647-3.647-4.605.435-.641 1.192-.595 1.75.108m88.799.309c-.37.576-.72.895-1.184 1.081-.94.376-.909.839.049.728 1.556-.181 1.959-.495 1.959-1.526 0-1.207-.19-1.272-.824-.283m-72.743-.335c1.852.841 3.023 3.374 2.238 4.841-.439.82-1.885.281-2.083-.777-.342-1.821-1.988-2.783-3.239-1.892-1.385.985-2.455-.121-1.342-1.389.917-1.044 3.028-1.418 4.426-.783m50.722.134c-.922.777-1.385 2.08-.842 2.371.738.395 4.52-1.347 4.52-2.081 0-.854-2.75-1.07-3.678-.29m34.128-.124c-.756.147-.797.189-1.238 1.256-.189.458-.463 1.111-.609 1.449-.482 1.114.005.824 1.462-.873 1.782-2.074 1.788-2.103.385-1.832m-37.863.952c-.361.246-1.185.722-1.83 1.059-1.296.677-1.584 1.061-1.588 2.12-.003.758.195.882.849.532.324-.173.324-.18-.032-.468-.741-.6-.067-1.262 1.958-1.925 1.097-.359 1.785-1.003 1.546-1.449-.207-.387-.121-.4-.903.131m-32.42.686c0 .624.496 1.56.796 1.502.426-.082.426-.502.001-1.13-.453-.668-.797-.829-.797-.372m40.506.944c-.336.404-1.502 1.04-2.163 1.178-.517.108-1.157.631-1.171.956-.003.07.287.08.645.023 1.713-.274 1.141 1.468-.817 2.49-5.396 2.815-6.355 3.66-4.971 4.375 1.552.803 3.931.114 6.723-1.946 2.439-1.8 2.43-1.781 1.842-4.041-.426-1.64-.406-2.159.097-2.55.522-.407.813-.38 1.393.129.496.436.672.497 1.161.405.809-.152.906-.428.15-.428-.403 0-.755-.123-.993-.347-.503-.473-1.59-.613-1.896-.244m18.311.775c-.511.547-.586.997-.331 1.982.084.321.201 1.013.261 1.538.34 2.971 1.737 2.003 1.866-1.294.106-2.711-.566-3.543-1.796-2.226m-48.317.915a6.227 6.227 0 01-.875.399c-.631.22-.644.939-.021 1.176 1.113.424 2.521-.473 2.052-1.307-.296-.528-.587-.595-1.156-.268m-28.503.066c.615.329.977 2.68.501 3.253-.24.29-.79.319-1.429.076-.375-.142-.515-.114-.814.167-1.076 1.012-3.356-1.272-2.467-2.471.462-.624 1.344-.903 1.844-.584.351.224.424.209.888-.181.537-.452.975-.529 1.477-.26m48.763-.016c-.11.179.373.391.588.258.083-.052.152-.164.152-.251 0-.199-.617-.206-.74-.007m32.542 1.715c-.249.249-.299.387-.157.434.218.073.855-.417.855-.657 0-.253-.326-.149-.698.223m-10.136.684c-.353.179-.431.361-.513 1.206-.259 2.661-2.232 6.328-4.644 8.633-1.95 1.863-2.138 1.929-4.343 1.528-.83-.151-1.422.269-.827.588.677.362 3.311.418 4.297.09 2.654-.881 8.505-5.367 8.793-6.741.051-.239.237-.891.414-1.447.853-2.673-1.019-4.946-3.177-3.857m-30.81.702c-.302.32-.488.579-.412.575.385-.022 1.308-.613 1.357-.868.091-.472-.353-.334-.945.293m9.85.047c-2.59 1.326-3.329 2.377-3.161 4.494.134 1.68.677 2.209 2.267 2.209 1.29 0 1.599-.387.509-.638-3.359-.776-3.218-2.63.409-5.36 1.985-1.495 1.977-1.73-.024-.705m17.861.265c-2.75 1.133-4.16 2.228-6.52 5.064-1.853 2.226-2.101 3.142-.742 2.735 1.07-.321 1.715-.235 2.355.312 1.219 1.042 2.385.07 1.506-1.257-.65-.982-.343-1.976.897-2.903.578-.432.827-.766 1.033-1.386.232-.699.444-.945 1.465-1.7 2.067-1.528 2.068-1.715.006-.865m-62.053-.182c.408.313.652.875.652 1.5 0 .362.125.681.344.879.19.172.677.778 1.084 1.348 1.807 2.532 3.705 3.537 5.489 2.905l.833-.295v-.817c0-.919.584-1.4 1.701-1.4 1.197-.001 1.459.303 1.601 1.859.04.442.233 1.005.447 1.305.458.644.484 1.312.064 1.627-.305.229-.493.224-2.253-.059-.53-.086-.69-.022-1.27.502-.818.739-1.459.785-2.204.159-.481-.405-.573-.425-1.157-.25-1.983.594-3.882-.866-5.529-4.251-.606-1.243-.711-1.367-1.246-1.467-.774-.145-.972-.649-.743-1.887.295-1.594 1.289-2.348 2.187-1.658m74.364 1.284c-.516.313-1.028 1.002-.745 1.002.221 0 1.462-1.12 1.359-1.227-.05-.051-.327.05-.614.225m-20.85 1.764c-.996 1.25-1.085 1.787-.31 1.875.868.1 2.055-1.429 1.818-2.341-.217-.839-.55-.736-1.508.466m-58.95.736c1.102.533 2.826 2.836 2.68 3.578-.303 1.539-1.902 1.735-2.592.318-.695-1.43-1.408-1.793-2.259-1.149-1.068.807-2.894-1.19-2.228-2.436.476-.888 2.86-1.056 4.399-.311m23.717.003c1.29.786 1.103 1.425-.582 1.987-1.69.564-2.38.423-2.38-.484 0-1.332 1.77-2.23 2.962-1.503m30.248 2.874c-1.709 1.197-.785 2.266.987 1.142.952-.604 1.016-.709.703-1.156-.329-.471-1.006-.465-1.69.014m-19.435 1.883c-.982.749-1.306 1.383-1.401 2.741-.164 2.351.392 2.923 2.284 2.349 1.229-.374 1.34-.503 1.346-1.57.002-.382.152-1.021.333-1.421.51-1.123.454-1.329-.378-1.389-.636-.046-.738-.115-1.002-.676-.353-.754-.244-.751-1.182-.034m7.137-.086c-.277.306-.285.418-.092 1.171.332 1.298-.091 1.626-1.276.991-.801-.429-1.131-.421-1.451.037-.549.783-.005 1.963.905 1.963.492 0 1.305.346 1.401.597.252.656-.592 1.403-1.586 1.403-.707 0-.579.47.256.938 1.463.821 3.335.675 5.431-.423 1.339-.701 1.439-3.616.168-4.887l-.634-.634-1.203.112-1.203.112.118-.859c.134-.972-.223-1.196-.834-.521m-13.662.824a4.6 4.6 0 001.582-.02c1.947-.421 1.505 1.792-.484 2.426-2.129.678-3.125.67-3.901-.033-.189-.171-.751-.316-1.486-.383-1.265-.116-1.667-.383-1.506-1 .231-.88 3.334-1.41 5.795-.99m19.417.017c0 .652 2.266 2.654 3.004 2.654.36 0 1.329-.834 1.329-1.144 0-.23-.823-1.089-1.333-1.392-.505-.298-3-.397-3-.118m7.619.409c-1.441.697-1.619.852-1.619 1.408 0 .264-.246.777-.584 1.22-.704.922-.708 1.023-.078 1.855.28.371.495.861.495 1.13 0 .845 1.105.62 5.714-1.161 2.205-.852 2.309-1.027.775-1.298-2.287-.403-2.507-.661-2.067-2.429.094-.379.046-.452-.365-.554a2.2 2.2 0 01-.807-.418c-.323-.29-.368-.283-1.464.247m-35.645 2.252c1.867.824 3.022 2.664 2.192 3.493-.636.636-1.584.38-3.393-.919-.991-.711-1.119-.714-2.531-.053-2.422 1.133-2.907-1.231-.509-2.481 1.205-.628 2.872-.644 4.241-.04m29.183.921c-.248.299.162.992.684 1.158.472.15 1.159-.039 1.159-.319 0-.519-1.531-1.215-1.843-.839m-22.464 1.584c.156.181.237.468.187.661-.274 1.047-3.214 1.116-3.214.076 0-1.061 2.269-1.613 3.027-.737m24.068 1.304c-.228.361-.493.704-.588.763-.639.395.088.528 1.267.231.875-.22 1.06-.516.623-.998-.638-.706-.855-.705-1.302.004" fill="#acacac"/>
    <path d="M101.005 60.187c.194.493.473 1.232.619 1.642l.266.745.184-.545c.284-.845.361-.857 5.468-.86l4.791-.002v15.094c0 11.156-.05 15.189-.194 15.458-.266.501-.62.737-1.306.872-1.196.236.063.386 3.25.386 3.418 0 4.148-.099 3.217-.437-1.113-.403-1.045.601-1.095-16.165l-.045-15.208h4.825c5.477 0 5.535.014 5.357 1.308-.08.583.353-.113.814-1.306.487-1.264.67-2.01.38-1.554-.33.517-1.162.552-13.451.552h-12.393l-.52-.438-.52-.438.353.896m78.245-.424c-7.272.999-12.523 5.547-14.911 12.913-3.367 10.387 2.909 20.101 13.411 20.758 11.534.722 20.128-7.809 19.705-19.562-.331-9.229-8.371-15.46-18.205-14.109m77.37 1.195c-.554 1.194-.857 1.952-2.246 5.625-.277.734-.767 1.971-1.088 2.75a334.69 334.69 0 00-1.753 4.417 524.367 524.367 0 01-1.508 3.833c-.185.459-.652 1.621-1.036 2.584-4.805 12.023-4.71 11.828-5.986 12.281-1.287.457-1.03.552 1.497.552 1.444 0 2.333-.063 2.333-.167a.167.167 0 00-.166-.166c-.092 0-.314-.148-.494-.328-.416-.416-.398-.478 1.693-5.756.871-2.2 1.993-5.05 2.492-6.333l.907-2.333h9.752l.649 1.437c.358.791.81 1.916 1.005 2.5.195.585.497 1.363.672 1.729.6 1.257 2.697 6.5 2.92 7.3.244.878.105 1.55-.358 1.728-.668.256.36.384 3.095.384 3.638.001 3.972-.066 2.877-.573-1.131-.524-2.579-3.281-4.118-7.839-.155-.458-.614-1.598-1.02-2.532-.407-.934-.739-1.781-.739-1.881 0-.1-.102-.348-.226-.551-.124-.203-.607-1.344-1.073-2.536a487.788 487.788 0 00-3.098-7.75c-.323-.779-.999-2.466-1.501-3.75-1.407-3.59-2.462-5.916-2.683-5.916-.11 0-.47.581-.799 1.291m26.88-1.025c-6.67 1.434-9.339 9.644-4.735 14.565 1.181 1.264 2.78 2.072 7.248 3.666 5.591 1.995 7.237 3.606 7.237 7.086 0 4.337-3.076 6.677-8.75 6.659-6.054-.02-7.993-1.744-8.896-7.909-.034-.229-.052 1.683-.041 4.25l.02 4.667 5.084-.008c8.924-.014 11.482-.98 13.469-5.091 2.89-5.979.079-10.796-7.969-13.655-4.498-1.598-5.113-1.878-6.435-2.934-1.448-1.155-2.08-4.224-1.29-6.267 1.932-5.006 9.005-5.845 13.459-1.598.645.615 1.193 1.097 1.218 1.072.065-.065-1.29-3.658-1.439-3.815-.607-.644-6.198-1.114-8.18-.688m-152.25.396c.183.077.567.227.853.333.991.369.955-.164 1.016 15.088.068 17.029.113 16.535-1.546 16.846-1.461.274-.303.412 3.344.398 2.311-.009 3.916-.079 3.916-.171 0-.086-.186-.156-.414-.156-.227 0-.659-.219-.958-.487l-.544-.486V76.583l.625.009c.343.004 4.375.023 8.958.041l8.333.034v7.255c0 8.374.015 8.275-1.24 8.611-1.407.376-.777.467 3.24.467 3.687 0 4.812-.129 3.465-.399-.295-.059-.745-.307-1-.552l-.465-.445V61.363l.513-.432c.296-.248.719-.431 1-.431.268 0 .487-.075.487-.167 0-.106-1.444-.166-4-.166-3.902 0-4.731.107-3.291.426 1.293.287 1.291.272 1.291 8.193v6.869l-8.791.048c-4.836.026-8.886.02-9-.012-.322-.092-.299-13.318.024-14.091.267-.64.843-1.1 1.378-1.1.203 0 .416-.075.473-.167.067-.109-1.287-.162-3.949-.155-2.347.006-3.911.07-3.718.151m70.917-.034c0 .075.321.222.714.327.953.255 1.531.736 2.124 1.77.626 1.092.641.763-.338 7.658-3.443 24.246-3.068 22.239-4.209 22.521-1.176.291-.624.429 1.709.429 2.192 0 2.958-.17 1.929-.428-1.203-.302-1.206-.442-.18-7.655.389-2.733 1.243-8.897 1.928-13.917.769-5.633.559-5.524 2.401-1.25 2.823 6.549 4.653 10.714 5.124 11.667.272.55.667 1.45.877 2 .21.55.76 1.862 1.224 2.916.463 1.055 1.284 2.93 1.824 4.167 1.164 2.665 1.226 2.687 2.074.75.645-1.471 2.407-5.536 3.974-9.167a894.91 894.91 0 011.745-4A357.171 357.171 0 00226.428 75c1.917-4.519 3.734-8.582 3.856-8.622.082-.028.353 1.395.603 3.161l1.121 7.961c.367 2.612.738 5.2.823 5.75 1.145 7.355 1.2 8.653.384 9.164-.878.551-.699.586 2.966.586 3.478 0 4.325-.156 2.877-.531-1.241-.322-1.209-.183-2.897-12.636-.7-5.169-.945-6.855-1.415-9.75a106.386 106.386 0 01-.865-6.617c-.145-1.438.625-2.676 1.812-2.913 1.231-.246.48-.392-1.8-.349l-2.466.046-.378.667c-.208.366-.86 1.791-1.449 3.166a9706.38 9706.38 0 01-9.04 20.977c-.921 2.114-.372 2.944-4.723-7.143-.751-1.742-1.843-4.292-2.426-5.667-.584-1.375-1.989-4.638-3.123-7.25l-2.06-4.75-3.031-.045c-1.667-.025-3.03.015-3.03.09m-19.934 1.621c15.951 4.626 17.948 25.007 2.873 29.327-12.935 3.707-24.929-14.752-16.269-25.04 3.421-4.064 8.528-5.698 13.396-4.287m74.975 6.535a165.546 165.546 0 011.649 4.132 100.465 100.465 0 001.245 3.126c.566 1.3.753 1.24-3.932 1.276-4.989.039-4.679.269-3.531-2.614a539.705 539.705 0 013.108-7.601c.36-.843.446-.743 1.461 1.681m-131.875 32.362c0 .08.215.188.477.241 1.228.245 1.946 1.424 3.424 5.618.499 1.418 1.099 3.028 1.333 3.578.234.55.427 1.093.429 1.208.005.237 2.192 6.27 3.077 8.484a267.53 267.53 0 011.928 5.141c3.03 8.299 3.215 8.765 3.45 8.716.28-.059 1.153-2.156 2.047-4.917a87.11 87.11 0 011.324-3.753c.823-2.125 2.029-5.524 2.471-6.962a47.82 47.82 0 01.951-2.667c.34-.871.957-2.558 1.371-3.75 1.073-3.087 1.019-3.082 1.971-.168.33 1.009.887 2.585 1.239 3.501.351.917.729 1.93.839 2.25a290.937 290.937 0 002.604 7.167 357.46 357.46 0 012.052 5.583c1.056 2.942 1.376 3.667 1.618 3.667.363 0 .472-.277 3.067-7.75.207-.596.482-1.338.611-1.649.229-.55 1.073-2.909 2.975-8.309a419.314 419.314 0 011.324-3.709c.219-.596.975-2.733 1.679-4.75 1.758-5.037 2.234-5.876 3.634-6.408.942-.358.431-.508-1.728-.508-2.168 0-2.549.105-1.729.479.667.304.595.556-3.1 10.87a2325.053 2325.053 0 00-4.295 12.067c-.921 2.65-1.111 3.071-1.305 2.877-.12-.12-1.24-3.139-1.902-5.127-.724-2.175-2.821-7.978-5.33-14.75-2.07-5.585-2.094-5.707-1.173-6 .982-.311.229-.462-1.791-.359a98.52 98.52 0 01-3.542.116l-1.416.008.608.321c.781.413 1.651 1.443 1.995 2.36.148.397.5 1.332.781 2.079l.51 1.357-.342 1.141c-.376 1.252-1.847 5.349-2.206 6.144-.125.275-.354.95-.51 1.5-.157.55-.343 1.075-.415 1.167-.071.091-.371.916-.666 1.833a74.36 74.36 0 01-1.255 3.506c-.395 1.011-.805 2.174-.911 2.583-.763 2.945-.784 2.928-2.486-2.006-1.305-3.782-2.993-8.464-3.43-9.514-.458-1.098-.691-1.727-1.976-5.319-.41-1.146-1.015-2.833-1.345-3.75-.765-2.126-.787-2.813-.102-3.167.786-.406.708-.416-3.167-.416-2.017 0-3.667.065-3.667.146m48.334.601c0 .184.181.253.666.253 1.574 0 1.489-.706 1.551 13 .059 12.873.019 12.392 1.215 14.666 2.3 4.376 8.621 6.131 14.402 4 2.283-.842 2.869-1.21 5.225-3.286 1.109-.977 1.092-1 1.144 1.578l.047 2.292 3 .026c1.824.017 2.779-.026 2.436-.108-1.892-.454-1.752.768-1.82-15.918-.069-16.974-.175-15.979 1.717-16.241 1.573-.218.457-.427-2.375-.443-2.471-.015-6.173.17-4.908.244 1.919.114 1.866-.283 1.866 14.081v12.402l-1.541 1.366c-6.486 5.743-14.719 3.807-16.296-3.833-.302-1.464-.325-2.318-.327-11.957-.003-12.213-.08-11.661 1.664-11.865.413-.048.732-.163.709-.254-.076-.305-8.375-.308-8.375-.003m58.555.002c.03.091.345.213.698.271 1.613.262 1.594.054 1.541 16.759-.051 16.174.069 14.934-1.477 15.322-.836.21 5.018.412 6.717.232l.882-.093-.618-.126c-1.741-.357-1.795-.643-1.797-9.489l-.001-6.625h5.475c5.568 0 6.391.079 6.604.632.201.526.415-.16.418-1.341.003-1.269-.026-1.303-.574-.666l-.394.458-5.766.05-5.767.05.044-7.217.043-7.216 5.667-.052c7.4-.066 7.602-.021 8.415 1.879.271.636.39.771.508.584.19-.3.207-3.163.021-3.456-.171-.269-20.729-.226-20.639.044m23.045-.127c-.185.184.099.378.554.378 1.582 0 1.513-.678 1.571 15.416.063 17.206.158 16.132-1.47 16.629-.915.279 5.334.402 14.661.288l6.834-.083.047-1.875c.052-2.078-.091-2.337-.527-.955-.235.747-.42 1.007-.976 1.375l-.687.455h-6.095c-8.618 0-7.907.754-7.981-8.465l-.053-6.464 5.91.048c5.354.043 5.941.075 6.232.339.494.447.546.373.546-.764 0-1.278-.065-1.362-.699-.894-.487.36-.586.366-6.189.366h-5.695v-14.666l6.129-.044c7.438-.053 7.364-.078 7.877 2.676.066.357.199.605.306.57.285-.095.351-4.104.068-4.192-.334-.105-20.262-.24-20.363-.138m-47.381.206c1.868.361 1.745-.769 1.763 16.255.019 16.774.132 15.511-1.434 15.97-1.19.349 4.033.469 13.785.317l7.75-.12.045-3.134c.051-3.468-.122-4.408-.442-2.419-.62 3.841-1.94 4.636-7.703 4.636-5.646 0-7.057-.539-7.923-3.026-.333-.955-.494-25.691-.178-27.184.151-.708.65-1.116 1.59-1.299.336-.066-1.301-.119-3.639-.119s-3.964.055-3.614.123" fill="#040404"/>
  </g>
</svg>
