<svg xmlns="http://www.w3.org/2000/svg" width="1256" height="544">
	<title>Yelm Records Logo</title>
  <path d="M1256 544H0V0h1256v544" fill="#fff"/>
  <path d="M131.398 486.344v-50.93c-38.75-3.223-68.21-33.903-68.21-77.898V240.868h15.336V355.5c0 39.953 27.846 66.193 61.352 66.193 33.5 0 61.355-26.24 61.355-66.193V240.868h15.332v116.648c0 43.995-29.468 74.675-68.214 77.899v50.929h-16.951M277.923 432.19V149.656h15.341V432.19h-15.341M383.67 363.568l123.105-83.145c-14.126-17.76-36.326-29.058-61.751-29.058-48.837 0-83.15 40.76-83.15 86.375 0 45.2 35.52 83.953 83.15 83.953 46.41 0 83.136-37.54 83.945-81.13h16.151c-1.213 50.858-42.784 95.658-96.87 95.658-59.737 0-102.52-43.188-102.52-99.286 0-54.094 40.36-100.102 99.294-100.102 36.732 0 67.804 18.972 85.157 46.819l-136.826 92.832-9.686-12.916M692.855 432.19V305.446c0-36.328-24.624-54.08-49.654-54.08-24.614 0-49.642 17.752-49.642 54.08v126.746h-15.332V305.445c0-44.389 29.058-68.612 64.974-68.612 30.276 0 48.843 13.723 56.919 37.535h.805c8.071-23.812 26.639-37.535 56.91-37.535 35.916 0 64.986 24.223 64.986 68.612v126.746H807.48V305.445c0-36.328-25.025-54.08-49.645-54.08-25.03 0-49.643 17.752-49.643 54.08v126.746h-15.337" fill="#231f20"/>
  <path d="M998.84 245.055l-9.1-3.5 42.476-110.471 9.099 3.499-42.475 110.472M1156.75 144.335l-4.769 8.502-63.572-35.654 4.767-8.502 63.575 35.654" fill="#918f90"/>
  <path d="M1095.977 108.41c-9.216 23.97-36.12 35.93-60.09 26.714-23.972-9.216-35.934-36.121-26.716-60.093 9.216-23.968 36.121-35.931 60.09-26.715 23.972 9.217 35.934 36.121 26.716 60.093M1202.744 145.852c8.815 13.69 4.867 31.937-8.827 40.75-13.686 8.818-31.934 4.867-40.748-8.823-8.816-13.691-4.865-31.935 8.824-40.751 13.69-8.816 31.934-4.864 40.751 8.824" fill="#68beec"/>
  <path d="M924.573 427.861c51.456 19.786 109.254-5.89 129.048-57.368 19.792-51.478-5.918-109.258-57.373-129.045-51.5-19.8-109.252 5.89-129.045 57.37-19.792 51.48 5.872 109.243 57.37 129.043" fill="#231f20"/>
  <path d="M960.408 370.01c19.52 0 35.361-15.829 35.361-35.36 0-19.529-15.841-35.358-35.361-35.358-19.537 0-35.36 15.83-35.36 35.359 0 19.53 15.823 35.36 35.36 35.36" fill="#68beec"/>
  <path d="M966.783 334.65a6.373 6.373 0 11-12.748 0 6.373 6.373 0 016.374-6.373 6.373 6.373 0 016.374 6.374" fill="#fff"/>
  <path d="M207.333 454.908h-41.998v10.417h41.998c1.332-.11 2.383-.648 3.148-1.645.76-.99 1.15-2.155 1.15-3.497 0-1.34-.39-2.512-1.15-3.53-.765-1.014-1.816-1.602-3.148-1.745zm9.611 4.941c-.15 2.76-.837 4.951-2.08 6.578-1.828 2.41-4.305 3.756-7.43 4.064h-9.645c4.499 2.807 10.446 6.306 17.823 10.486.739.444 1.183 1.132 1.332 2.07.099.49-.136 1.1-.704 1.849-.56.73-1.144 1.052-1.732.953a3.616 3.616 0 01-1.55-.517 1879.316 1879.316 0 00-24.806-14.841h-22.817v13.512c-.598 1.226-1.462 1.846-2.59 1.846-1.134 0-1.989-.62-2.589-1.854v-31.746c0-.59.347-1.154 1.036-1.7.692-.539 1.307-.806 1.844-.806h44.455c3.301.386 5.741 1.685 7.314 3.913 1.58 2.212 2.288 4.278 2.139 6.193M316.192 485.921h-52.359c-.392 0-.909-.307-1.545-.924-.647-.61-.961-1.145-.961-1.592V452.25c0-.59.34-1.157 1.029-1.7.696-.539 1.307-.806 1.848-.806h51.616c1.477.29 2.216 1.153 2.216 2.584 0 1.22-.615 2.085-1.844 2.58h-49.696v10.334h49.696c1.23.588 1.844 1.43 1.844 2.515 0 1.081-.615 1.97-1.844 2.659h-49.696v10.332h49.696c1.23.594 1.844 1.433 1.844 2.516 0 1.082-.615 1.966-1.844 2.658M417.279 474.253c0 .638-.443 1.703-1.328 3.179-2.559 4.384-6.451 7.108-11.667 8.195-.888.195-1.23.294-1.037.294h-25.988c-.496 0-1.675-.35-3.546-1.038-1.624-.583-2.541-.932-2.729-1.03a33.197 33.197 0 01-2.733-1.917c-1.428-1.19-2.663-2.693-3.696-4.504-1.82-3.053-2.735-6.257-2.735-9.6 0-3.108.915-6.3 2.735-9.603.445-.781 1.67-2.26 3.696-4.43.83-.836 2.301-1.719 4.429-2.66 2.115-.932 3.759-1.396 4.943-1.396h25.252c2.074 0 4.557.948 7.466 2.83 2.906 1.906 4.767 3.787 5.61 5.656.244.343.568.859.953 1.555.256.935.375 1.496.375 1.688 0 .644-.264 1.233-.812 1.775-.543.55-1.128.809-1.77.809-.99 0-1.874-.776-2.664-2.361-1.721-3.19-4.136-5.236-7.233-6.124-1.525-.442-2.216-.663-2.067-.663h-24.962c-.444 0-1.332.267-2.656.804-1.134.502-1.85.819-2.146.964-3.989 2.656-5.976 6.372-5.976 11.156 0 2.705.712 5.163 2.14 7.377 1.623 2.422 3.815 4.07 6.57 4.952 1.333.394 2.018.586 2.068.586h24.962c.098 0 .414-.095.962-.288.537-.2.913-.298 1.105-.298 1.281-.144 2.781-.98 4.507-2.518 1.573-1.467 2.554-2.779 2.948-3.9.496-1.384 1.308-2.078 2.442-2.078.686 0 1.287.286 1.804.86.522.559.778 1.139.778 1.728M515.416 467.832c0-3.693-2.437-6.816-7.305-9.38-3.65-1.973-7.17-3.08-10.571-3.323-2.259-.149-4.059-.221-5.385-.221-4.086 0-7.336.399-9.746 1.18-1.326.39-3.132 1.005-5.392 1.846-5.417 2.606-8.12 5.915-8.12 9.898 0 4.33 2.875 7.704 8.643 10.117 4.519 1.859 9.397 2.798 14.615 2.798 5.265 0 9.896-.806 13.882-2.435 6.255-2.555 9.379-6.052 9.379-10.48zm5.17 0c0 1.721-.19 3.085-.557 4.09-.364 1.015-1.098 2.285-2.178 3.802-2.71 3.75-6.794 6.479-12.258 8.205-4.136 1.32-8.613 1.992-13.438 1.992-4.534 0-8.25-.414-11.151-1.256-11.521-3.293-17.285-8.908-17.285-16.833 0-3.056.893-5.69 2.67-7.903 5.555-6.794 14.15-10.186 25.766-10.186 2.562 0 4.48.072 5.762.221 6.199.781 11.418 2.705 15.652 5.748 4.68 3.35 7.018 7.388 7.018 12.12M611.99 454.908h-42.005v10.417h42.006c1.336-.11 2.386-.648 3.144-1.645.768-.99 1.144-2.155 1.144-3.497 0-1.34-.376-2.512-1.144-3.53-.758-1.014-1.808-1.602-3.144-1.745zm9.611 4.941c-.153 2.76-.846 4.951-2.078 6.578-1.838 2.41-4.312 3.756-7.426 4.064h-9.662c4.51 2.807 10.452 6.306 17.829 10.486.74.444 1.184 1.132 1.337 2.07.094.49-.14 1.1-.702 1.849-.57.73-1.143 1.052-1.736.953a3.615 3.615 0 01-1.551-.517 1812.347 1812.347 0 00-24.807-14.841h-22.82v13.512c-.594 1.226-1.457 1.846-2.589 1.846s-1.99-.62-2.576-1.854v-31.746c0-.59.343-1.154 1.03-1.7.683-.539 1.298-.806 1.842-.806h44.452c3.297.386 5.732 1.685 7.313 3.913 1.572 2.212 2.295 4.278 2.144 6.193M717.743 467.832c0-2.557-.67-4.928-1.999-7.095-1.572-2.604-3.81-4.325-6.72-5.166-1.467-.442-2.281-.663-2.432-.663h-35.375v25.839h35.375c.395 0 1.205-.192 2.432-.586 2.91-1.037 5.125-2.73 6.647-5.1 1.384-2.113 2.072-4.524 2.072-7.23zm5.165 0c0 2.852-.91 6.045-2.73 9.6-.991 1.961-2.707 3.816-5.17 5.532-1.88 1.336-4.036 2.213-6.492 2.663-.99.195-1.337.294-1.044.294h-38.908c-.399 0-.915-.307-1.55-.924-.638-.61-.962-1.145-.962-1.592V452.25c0-.59.341-1.157 1.033-1.7.692-.539 1.282-.806 1.775-.806h38.245c2.068 0 4.542.948 7.424 2.83 2.882 1.906 4.77 3.787 5.65 5.656.153.243.397.662.738 1.248 1.33 2.326 1.991 5.102 1.991 8.355M821.936 454.908h-45.352c-2.75.89-4.125 2.659-4.125 5.319 0 2.557 1.378 4.232 4.129 5.014h38.253c2.806.5 5.003 1.742 6.57 3.736 1.576 1.992 2.366 4.238 2.366 6.747 0 2.47-.74 4.61-2.208 6.432-1.581 2.019-3.817 3.27-6.716 3.765h-45.646c-1.186-.548-1.774-1.401-1.774-2.588 0-1.13.588-1.992 1.774-2.586h45.492c2.752-.782 4.126-2.455 4.126-5.023 0-2.653-1.374-4.424-4.126-5.31h-38.254c-2.906-.445-5.165-1.675-6.798-3.697-1.479-1.865-2.214-4.034-2.214-6.49 0-2.608.787-4.886 2.356-6.79 1.722-2.13 4.032-3.354 6.923-3.694h44.857c1.468.29 2.208 1.153 2.208 2.584 0 1.22-.609 2.085-1.841 2.58" fill="#231f20"/>
</svg>
